<svg id="svg" version="1.1" xmlns="http://www.w3.org/2000/svg" xmlns:xlink="http://www.w3.org/1999/xlink" width="400" height="400" viewBox="0, 0, 400,400"><g id="svgg"><path id="path0" d="M0.000 200.000 L 0.000 400.000 200.000 400.000 L 400.000 400.000 400.000 200.000 L 400.000 0.000 200.000 0.000 L 0.000 0.000 0.000 200.000 M135.626 170.665 C 140.244 171.589,142.024 177.597,138.673 180.948 C 133.081 186.540,124.294 179.778,128.634 173.221 C 130.143 170.940,132.568 170.054,135.626 170.665 M119.104 186.890 C 121.314 187.928,124.400 190.853,124.400 191.909 C 124.400 192.311,124.591 192.831,124.824 193.064 C 125.488 193.728,125.129 197.400,124.400 197.400 C 124.004 197.400,123.724 196.857,123.577 195.800 C 122.863 190.673,119.134 187.612,113.600 187.612 C 106.180 187.612,104.156 192.597,110.375 195.556 C 111.351 196.020,112.466 196.400,112.852 196.400 C 113.237 196.400,113.664 196.580,113.800 196.800 C 113.936 197.020,114.399 197.200,114.829 197.200 C 115.259 197.200,115.923 197.362,116.305 197.560 C 116.687 197.758,118.260 198.417,119.800 199.024 C 129.895 203.005,129.933 214.456,119.866 218.772 C 117.658 219.718,111.666 219.938,109.719 219.144 C 106.689 217.908,106.054 217.529,104.541 216.045 C 101.891 213.448,100.175 208.465,101.481 207.159 C 102.155 206.485,102.800 207.098,102.800 208.412 C 102.800 214.626,111.480 219.771,118.083 217.471 C 123.250 215.672,122.152 211.562,116.029 209.782 C 114.803 209.425,113.487 208.968,113.105 208.767 C 112.723 208.565,112.084 208.400,111.685 208.400 C 111.286 208.400,110.789 208.251,110.580 208.070 C 110.371 207.888,109.473 207.512,108.585 207.234 C 98.336 204.026,98.059 190.262,108.169 186.548 C 110.518 185.685,116.968 185.887,119.104 186.890 M219.537 186.617 C 224.108 188.208,228.154 191.616,229.968 195.400 C 230.495 196.500,231.078 197.713,231.263 198.095 C 231.739 199.076,231.685 206.700,231.200 207.000 C 230.980 207.136,230.800 207.574,230.800 207.973 C 230.800 211.214,222.914 218.800,219.545 218.800 C 219.161 218.800,218.736 218.980,218.600 219.200 C 218.462 219.423,216.604 219.600,214.400 219.600 C 212.196 219.600,210.338 219.423,210.200 219.200 C 210.064 218.980,209.639 218.800,209.255 218.800 C 207.841 218.800,204.223 216.609,202.043 214.432 C 200.013 212.406,198.967 210.751,197.651 207.481 C 197.092 206.094,197.051 198.539,197.600 198.200 C 197.820 198.064,198.000 197.607,198.000 197.184 C 198.000 195.214,202.652 189.733,205.654 188.165 C 209.870 185.964,215.772 185.305,219.537 186.617 M289.485 186.758 C 293.894 188.370,296.113 190.852,297.566 195.800 C 297.890 196.902,298.000 200.822,297.918 208.400 L 297.800 219.400 296.232 219.528 C 293.307 219.767,289.139 216.898,287.439 213.474 L 286.482 211.548 285.544 213.425 C 281.738 221.048,269.711 222.046,266.574 215.000 C 266.300 214.385,266.187 214.707,266.085 216.388 C 265.912 219.235,265.557 219.600,262.963 219.600 C 259.753 219.600,257.203 218.043,255.139 214.822 L 254.000 213.043 254.000 204.541 C 254.000 192.657,253.522 190.800,250.460 190.800 C 248.682 190.800,246.355 192.965,245.815 195.123 C 244.962 198.526,244.704 201.552,244.535 210.100 L 244.348 219.600 242.074 219.589 C 237.396 219.566,233.748 216.284,232.826 211.271 C 232.081 207.212,232.383 187.707,233.200 187.191 C 235.599 185.676,241.675 188.698,243.567 192.346 L 244.265 193.693 244.922 192.309 C 246.752 188.452,249.852 186.688,254.800 186.688 C 263.250 186.688,265.975 191.030,266.020 204.567 L 266.040 210.600 266.870 208.889 C 268.968 204.561,275.259 201.510,284.100 200.533 L 286.000 200.323 286.000 196.756 C 286.000 194.794,285.792 192.787,285.538 192.295 C 285.284 191.803,284.952 191.130,284.800 190.800 C 282.989 186.853,275.467 187.907,272.006 192.592 C 269.649 195.782,268.260 195.307,270.131 191.952 C 272.947 186.901,282.710 184.282,289.485 186.758 M169.473 187.404 C 171.131 188.264,173.255 190.433,173.861 191.885 C 174.557 193.549,175.000 193.543,175.800 191.857 C 178.855 185.418,189.732 184.571,193.984 190.442 C 196.249 193.567,196.441 194.999,196.314 207.800 L 196.200 219.400 193.936 219.519 C 190.974 219.674,188.356 218.483,186.722 216.235 C 184.478 213.148,184.400 212.687,184.400 202.513 C 184.400 193.662,184.353 193.057,183.573 191.962 C 181.907 189.622,178.111 190.939,176.917 194.270 C 175.689 197.695,175.600 198.651,175.600 208.448 C 175.600 219.963,175.700 219.600,172.532 219.600 C 169.355 219.600,166.795 218.030,164.739 214.822 L 163.600 213.043 163.600 204.541 C 163.600 192.657,163.122 190.800,160.060 190.800 C 158.282 190.800,155.955 192.965,155.415 195.123 C 154.562 198.526,154.304 201.552,154.135 210.100 L 153.948 219.600 151.674 219.589 C 146.996 219.566,143.348 216.284,142.426 211.271 C 141.681 207.212,141.983 187.707,142.800 187.191 C 145.199 185.676,151.275 188.698,153.167 192.346 L 153.865 193.693 154.508 192.337 C 155.817 189.578,159.027 187.079,161.800 186.660 C 163.759 186.364,168.321 186.806,169.473 187.404 M131.343 187.398 C 134.909 188.480,137.543 190.690,139.074 193.884 C 139.726 195.245,139.800 196.628,139.800 207.400 L 139.800 219.400 138.257 219.527 C 135.096 219.786,130.593 216.587,128.940 212.909 C 128.085 211.004,127.594 189.106,128.374 187.648 C 128.912 186.644,128.868 186.647,131.343 187.398 M212.333 188.511 C 210.064 190.615,208.372 210.932,210.306 212.866 C 210.578 213.138,210.800 213.733,210.800 214.189 C 210.800 215.581,213.085 218.000,214.400 218.000 C 216.903 218.000,218.135 215.451,218.848 208.800 C 220.354 194.741,216.973 184.212,212.333 188.511 M285.200 202.406 C 284.870 202.616,284.272 202.791,283.872 202.794 C 281.443 202.814,278.000 207.084,278.000 210.076 C 278.000 214.856,282.658 215.361,284.682 210.800 C 286.102 207.601,286.472 201.596,285.200 202.406 " stroke="none" fill="#f3ebe3" fill-rule="evenodd"></path><path id="path1" d="M131.296 171.998 C 125.329 175.636,130.199 184.966,136.372 181.721 C 141.533 179.008,139.773 171.203,134.000 171.203 C 133.230 171.203,132.013 171.561,131.296 171.998 M281.300 186.689 C 279.499 186.913,279.674 187.446,281.653 187.762 C 285.792 188.424,286.844 191.162,286.771 201.086 C 286.685 212.838,289.071 217.636,295.500 218.637 L 297.200 218.902 297.187 209.551 C 297.165 194.082,296.238 191.012,290.727 188.162 C 289.591 187.575,283.991 186.354,283.000 186.478 C 282.780 186.506,282.015 186.601,281.300 186.689 M209.800 187.361 C 197.742 191.184,193.968 205.121,202.636 213.813 C 205.564 216.749,212.000 219.627,212.000 218.000 C 212.000 217.780,211.841 217.600,211.646 217.600 C 208.056 217.600,207.709 193.283,211.229 188.423 C 212.488 186.686,212.320 186.562,209.800 187.361 M217.321 188.107 C 221.055 193.183,220.917 217.600,217.154 217.600 C 216.959 217.600,216.800 217.804,216.800 218.052 C 216.800 219.213,221.292 217.601,224.516 215.285 C 235.452 207.428,231.102 189.446,217.685 187.049 L 216.370 186.814 217.321 188.107 M160.880 187.705 C 160.153 187.937,158.803 188.826,157.880 189.679 L 156.200 191.232 157.968 190.373 C 159.503 189.628,159.938 189.575,161.262 189.971 C 163.681 190.696,163.776 191.113,164.013 202.000 C 164.301 215.308,165.822 218.294,172.600 218.865 L 174.200 219.000 174.400 208.600 C 174.510 202.880,174.741 197.982,174.914 197.716 C 175.086 197.450,175.042 196.910,174.816 196.516 C 174.590 196.122,174.033 194.771,173.578 193.513 C 171.809 188.615,166.137 186.021,160.880 187.705 M181.883 187.813 C 179.993 188.507,178.128 189.814,177.587 190.824 C 177.241 191.470,177.416 191.429,178.688 190.562 C 180.534 189.305,182.443 189.462,183.978 190.996 L 185.000 192.017 185.216 202.309 C 185.449 213.391,185.504 213.688,187.787 216.096 C 189.573 217.981,193.955 219.570,195.217 218.789 C 196.202 218.181,195.530 195.388,194.456 193.000 C 192.312 188.231,186.866 185.984,181.883 187.813 M251.280 187.705 C 250.553 187.937,249.203 188.826,248.280 189.679 L 246.600 191.232 248.368 190.373 C 249.903 189.628,250.338 189.575,251.662 189.971 C 254.081 190.696,254.176 191.113,254.413 202.000 C 254.701 215.308,256.222 218.294,263.000 218.865 L 264.600 219.000 264.706 207.331 C 264.806 196.356,264.763 195.530,263.982 193.444 C 262.171 188.603,256.489 186.036,251.280 187.705 M105.306 189.169 C 101.938 191.609,100.610 197.103,102.445 201.007 C 103.944 204.195,105.929 205.425,113.953 208.139 C 121.425 210.667,123.123 212.151,122.052 215.223 C 121.110 217.925,123.777 215.906,125.369 212.712 C 128.692 206.044,125.717 201.935,114.810 198.129 C 106.689 195.295,104.512 193.186,106.311 189.901 C 107.447 187.828,107.302 187.723,105.306 189.169 M128.963 188.552 C 128.223 190.481,129.025 210.655,129.920 212.595 C 131.462 215.942,134.171 218.098,137.500 218.630 L 139.200 218.902 139.200 207.866 C 139.200 195.304,138.933 193.859,136.103 191.106 C 133.621 188.691,129.478 187.209,128.963 188.552 M143.467 188.267 C 143.320 188.413,143.200 193.781,143.200 200.195 L 143.200 211.857 144.300 214.025 C 145.863 217.107,151.787 220.302,153.274 218.864 C 154.198 217.971,153.698 195.782,152.705 193.600 C 150.899 189.634,145.320 186.413,143.467 188.267 M233.867 188.267 C 233.720 188.413,233.600 193.781,233.600 200.195 L 233.600 211.857 234.700 214.025 C 236.263 217.107,242.187 220.302,243.674 218.864 C 244.598 217.971,244.098 195.782,243.105 193.600 C 241.299 189.634,235.720 186.413,233.867 188.267 M280.000 202.038 C 270.775 204.452,267.239 207.262,267.215 212.200 C 267.180 219.361,276.985 221.454,282.892 215.546 C 284.954 213.484,285.258 212.467,283.367 213.954 C 281.225 215.640,278.449 214.773,277.583 212.149 C 276.493 208.847,278.137 204.891,281.391 202.984 C 283.895 201.516,283.367 201.157,280.000 202.038 " stroke="none" fill="#474718" fill-rule="evenodd"></path><path id="path2" d="M130.733 171.883 C 127.522 173.875,127.176 178.559,130.059 180.998 L 131.000 181.794 130.127 180.797 C 127.525 177.827,128.035 173.986,131.296 171.998 C 132.013 171.561,132.420 171.207,132.200 171.212 C 131.980 171.217,131.320 171.519,130.733 171.883 M136.704 171.998 C 139.965 173.986,140.475 177.827,137.873 180.797 L 137.000 181.794 137.941 180.998 C 141.159 178.275,139.660 171.189,135.869 171.201 C 135.611 171.202,135.987 171.561,136.704 171.998 M108.334 187.187 C 104.990 188.460,101.566 191.921,101.615 193.978 C 101.623 194.320,102.093 193.642,102.659 192.470 C 103.303 191.139,104.297 189.900,105.309 189.167 C 107.014 187.932,107.686 187.897,106.769 189.090 C 106.461 189.492,106.664 189.409,107.238 188.900 C 107.795 188.405,108.555 188.000,108.926 188.000 C 109.297 188.000,109.600 187.820,109.600 187.600 C 109.600 187.361,111.141 187.200,113.424 187.200 C 115.871 187.200,117.158 187.056,117.000 186.800 C 116.582 186.124,110.399 186.400,108.334 187.187 M210.600 186.827 C 210.015 187.099,210.175 187.131,211.200 186.949 L 212.600 186.700 211.800 187.634 L 211.000 188.569 212.086 187.884 C 213.923 186.727,215.730 186.987,217.159 188.614 C 218.654 190.317,218.804 190.005,217.385 188.145 L 216.370 186.814 217.685 187.015 C 218.720 187.173,218.829 187.134,218.200 186.836 C 217.172 186.348,211.647 186.342,210.600 186.827 M278.200 186.862 C 274.410 188.120,270.145 191.584,270.510 193.106 C 270.658 193.723,270.713 193.711,271.005 193.000 C 272.120 190.285,276.014 188.031,279.749 187.940 C 281.097 187.907,281.705 187.805,281.100 187.713 C 279.597 187.486,279.714 186.886,281.300 186.689 C 282.463 186.545,282.432 186.525,281.000 186.496 C 280.120 186.478,278.860 186.643,278.200 186.862 M284.033 186.546 C 284.125 186.626,285.190 186.800,286.400 186.932 C 287.837 187.088,288.322 187.048,287.800 186.814 C 287.043 186.475,283.679 186.236,284.033 186.546 M117.800 187.600 C 117.936 187.820,118.397 188.000,118.824 188.000 C 119.251 188.000,119.600 188.180,119.600 188.400 C 119.600 188.620,119.798 188.800,120.040 188.800 C 120.653 188.800,122.812 191.180,123.255 192.345 C 123.457 192.876,123.738 193.196,123.878 193.055 C 124.511 192.422,121.737 188.883,119.680 187.700 C 118.640 187.101,117.453 187.038,117.800 187.600 M167.000 187.600 C 168.196 188.114,169.195 188.114,168.400 187.600 C 168.070 187.387,167.440 187.222,167.000 187.234 L 166.200 187.256 167.000 187.600 M180.492 188.046 C 178.594 188.986,176.000 191.759,176.000 192.848 C 176.000 193.236,175.820 193.664,175.600 193.800 C 175.380 193.936,175.200 194.382,175.200 194.790 C 175.200 195.199,174.975 195.616,174.700 195.717 C 174.304 195.862,174.307 196.014,174.717 196.447 C 175.319 197.084,175.983 196.365,175.994 195.062 C 175.997 194.656,176.371 193.802,176.825 193.164 C 177.281 192.524,177.521 191.780,177.361 191.503 C 177.202 191.226,177.208 191.123,177.375 191.273 C 177.543 191.423,178.350 191.196,179.170 190.769 C 181.017 189.806,182.984 190.098,183.881 191.468 C 184.226 191.994,184.605 192.329,184.722 192.211 C 186.095 190.839,180.992 189.171,179.006 190.343 C 178.233 190.800,177.600 191.008,177.600 190.807 C 177.600 190.229,180.119 188.459,181.836 187.829 C 182.696 187.514,183.130 187.244,182.800 187.229 C 182.470 187.213,181.431 187.581,180.492 188.046 M206.400 188.425 C 204.246 189.610,201.096 192.349,200.376 193.661 C 200.176 194.025,201.077 193.259,202.378 191.958 C 203.839 190.497,205.709 189.136,207.272 188.397 C 208.662 187.739,209.530 187.204,209.200 187.208 C 208.870 187.211,207.610 187.759,206.400 188.425 M257.400 187.600 C 258.596 188.114,259.595 188.114,258.800 187.600 C 258.470 187.387,257.840 187.222,257.400 187.234 L 256.600 187.256 257.400 187.600 M143.067 187.867 C 142.920 188.013,142.841 193.278,142.891 199.567 L 142.981 211.000 143.191 199.600 L 143.400 188.200 144.800 187.953 L 146.200 187.705 144.767 187.653 C 143.978 187.624,143.213 187.720,143.067 187.867 M233.467 187.867 C 233.320 188.013,233.241 193.278,233.291 199.567 L 233.381 211.000 233.591 199.600 L 233.800 188.200 235.200 187.953 L 236.600 187.705 235.167 187.653 C 234.378 187.624,233.613 187.720,233.467 187.867 M131.600 188.286 C 131.930 188.409,132.695 188.760,133.300 189.065 C 133.905 189.371,134.400 189.531,134.400 189.421 C 134.400 189.107,132.098 187.996,131.520 188.032 C 131.171 188.053,131.197 188.136,131.600 188.286 M148.200 188.758 C 151.551 190.310,154.162 194.860,153.826 198.562 L 153.641 200.600 154.048 198.400 C 154.272 197.190,154.623 195.887,154.828 195.505 C 155.032 195.123,155.200 194.571,155.200 194.277 C 155.200 193.984,155.844 192.992,156.630 192.073 C 157.622 190.915,157.837 190.472,157.330 190.632 C 156.929 190.758,157.305 190.218,158.167 189.431 C 159.028 188.644,159.541 188.000,159.307 188.000 C 158.132 188.000,155.055 192.015,154.405 194.397 C 154.143 195.357,154.092 195.323,153.223 193.600 C 151.759 190.702,148.789 187.981,147.120 188.009 C 146.834 188.014,147.320 188.351,148.200 188.758 M170.556 189.268 C 171.402 189.966,172.433 191.091,172.846 191.768 C 173.259 192.446,173.598 192.799,173.599 192.554 C 173.602 191.616,170.276 188.002,169.409 188.000 C 169.194 188.000,169.710 188.571,170.556 189.268 M222.424 188.788 C 223.207 189.202,224.827 190.400,226.024 191.449 C 227.910 193.102,228.013 193.152,226.800 191.826 C 225.354 190.245,222.164 187.987,221.422 188.018 C 221.190 188.027,221.641 188.374,222.424 188.788 M238.600 188.758 C 241.951 190.310,244.562 194.860,244.226 198.562 L 244.041 200.600 244.448 198.400 C 244.672 197.190,245.023 195.887,245.228 195.505 C 245.432 195.123,245.600 194.571,245.600 194.277 C 245.600 193.984,246.244 192.992,247.030 192.073 C 248.022 190.915,248.237 190.472,247.730 190.632 C 247.329 190.758,247.705 190.218,248.567 189.431 C 249.428 188.644,249.941 188.000,249.707 188.000 C 248.532 188.000,245.455 192.015,244.805 194.397 C 244.543 195.357,244.492 195.323,243.623 193.600 C 242.159 190.702,239.189 187.981,237.520 188.009 C 237.234 188.014,237.720 188.351,238.600 188.758 M260.947 189.227 C 261.798 189.947,262.833 191.091,263.246 191.768 C 263.659 192.446,263.998 192.799,263.999 192.554 C 264.000 192.146,262.817 190.429,261.800 189.363 C 261.571 189.123,260.937 188.699,260.392 188.422 C 259.764 188.102,259.968 188.398,260.947 189.227 M283.000 188.467 C 283.440 188.710,284.169 189.200,284.619 189.555 C 285.070 189.910,284.932 189.705,284.313 189.100 C 283.694 188.495,282.965 188.005,282.694 188.012 C 282.422 188.019,282.560 188.223,283.000 188.467 M291.611 188.660 C 292.155 189.024,293.151 189.789,293.823 190.360 C 294.496 190.932,294.254 190.635,293.285 189.700 C 292.316 188.765,291.320 188.000,291.072 188.000 C 290.825 188.000,291.067 188.297,291.611 188.660 M210.156 190.243 C 209.824 191.037,209.626 191.759,209.714 191.848 C 209.803 191.936,210.159 191.287,210.505 190.404 C 211.289 188.409,210.982 188.268,210.156 190.243 M136.000 191.000 C 136.746 191.770,137.447 192.400,137.557 192.400 C 137.667 192.400,137.146 191.770,136.400 191.000 C 135.654 190.230,134.953 189.600,134.843 189.600 C 134.733 189.600,135.254 190.230,136.000 191.000 M158.858 189.956 C 158.508 190.178,158.886 190.285,159.924 190.257 C 161.807 190.208,163.034 191.120,163.570 192.967 C 163.767 193.645,163.944 193.876,163.964 193.480 C 164.083 191.099,160.719 188.777,158.858 189.956 M249.258 189.956 C 248.908 190.178,249.286 190.285,250.324 190.257 C 252.207 190.208,253.434 191.120,253.970 192.967 C 254.167 193.645,254.344 193.876,254.364 193.480 C 254.483 191.099,251.119 188.777,249.258 189.956 M105.772 190.971 C 105.637 191.505,105.700 192.249,105.909 192.624 C 106.200 193.143,106.291 192.911,106.291 191.653 C 106.291 189.776,106.126 189.559,105.772 190.971 M194.330 192.782 C 194.698 193.651,195.056 194.204,195.124 194.009 C 195.250 193.649,194.113 191.200,193.819 191.200 C 193.731 191.200,193.961 191.912,194.330 192.782 M209.086 194.200 C 208.933 195.080,208.829 196.430,208.853 197.200 C 208.885 198.201,208.999 197.917,209.253 196.200 C 209.656 193.479,209.511 191.746,209.086 194.200 M184.898 202.000 C 184.875 206.950,184.979 211.309,185.128 211.688 C 185.278 212.066,185.351 208.736,185.290 204.288 C 185.132 192.645,184.946 191.562,184.898 202.000 M219.485 195.600 C 219.607 197.030,219.772 198.275,219.853 198.367 C 220.120 198.670,219.911 195.422,219.585 194.200 C 219.382 193.444,219.346 193.962,219.485 195.600 M286.400 196.954 L 286.400 200.708 284.100 201.022 C 282.835 201.194,282.117 201.408,282.505 201.498 C 282.893 201.587,283.089 201.855,282.942 202.093 C 282.762 202.386,282.987 202.430,283.637 202.231 C 286.492 201.355,286.349 201.254,286.490 204.257 C 286.561 205.766,286.656 203.895,286.701 200.100 C 286.747 196.305,286.697 193.200,286.592 193.200 C 286.486 193.200,286.400 194.889,286.400 196.954 M124.000 195.376 C 124.000 196.159,124.180 196.800,124.400 196.800 C 124.620 196.800,124.800 196.271,124.800 195.624 C 124.800 194.977,124.620 194.336,124.400 194.200 C 124.162 194.053,124.000 194.529,124.000 195.376 M198.986 196.027 C 198.637 196.702,198.407 197.414,198.476 197.609 C 198.544 197.804,198.902 197.251,199.270 196.382 C 200.065 194.506,199.887 194.284,198.986 196.027 M229.514 196.454 C 229.872 197.364,230.228 197.916,230.306 197.681 C 230.444 197.269,229.343 194.800,229.022 194.800 C 228.935 194.800,229.157 195.544,229.514 196.454 M108.400 195.396 C 108.400 195.670,110.849 196.884,111.032 196.701 C 111.119 196.614,110.562 196.244,109.795 195.878 C 109.028 195.512,108.400 195.295,108.400 195.396 M195.542 206.821 C 195.663 216.347,195.589 218.568,195.145 218.879 C 194.702 219.189,194.713 219.230,195.200 219.097 C 195.875 218.913,196.310 199.551,195.704 196.634 C 195.534 195.815,195.461 200.399,195.542 206.821 M101.301 197.000 C 101.305 197.880,101.387 198.193,101.483 197.695 C 101.579 197.198,101.575 196.478,101.475 196.095 C 101.375 195.713,101.296 196.120,101.301 197.000 M297.142 207.611 L 297.284 218.916 295.542 218.659 C 294.219 218.463,293.971 218.504,294.510 218.826 C 294.901 219.060,295.711 219.195,296.310 219.126 L 297.400 219.000 297.507 209.488 C 297.566 204.256,297.476 199.150,297.307 198.141 C 297.138 197.132,297.064 201.394,297.142 207.611 M112.000 197.200 C 112.330 197.413,112.870 197.588,113.200 197.588 C 113.733 197.588,113.733 197.545,113.200 197.200 C 112.870 196.987,112.330 196.812,112.000 196.812 C 111.467 196.812,111.467 196.855,112.000 197.200 M264.800 207.881 C 264.690 214.085,264.738 219.023,264.907 218.854 C 265.075 218.685,265.165 213.609,265.106 207.573 L 264.999 196.600 264.800 207.881 M174.738 197.700 C 174.525 198.047,174.251 219.108,174.463 218.881 C 174.703 218.625,175.135 197.600,174.901 197.600 C 174.845 197.600,174.772 197.645,174.738 197.700 M139.293 208.351 L 139.200 218.902 137.500 218.645 C 136.306 218.465,135.979 218.508,136.400 218.788 C 137.252 219.356,139.189 219.295,139.420 218.693 C 139.527 218.414,139.563 213.599,139.500 207.993 L 139.386 197.800 139.293 208.351 M117.200 198.888 C 117.750 199.127,119.100 199.716,120.200 200.197 C 122.733 201.305,124.618 202.894,125.598 204.748 C 126.019 205.547,126.373 205.958,126.382 205.662 C 126.450 203.587,119.381 198.291,116.726 198.427 C 116.437 198.442,116.650 198.650,117.200 198.888 M197.849 199.015 C 197.712 199.373,197.620 200.236,197.644 200.933 C 197.682 202.037,197.733 201.971,198.036 200.425 C 198.393 198.605,198.294 197.857,197.849 199.015 M230.682 200.200 C 230.809 201.300,230.977 202.275,231.056 202.367 C 231.355 202.714,231.128 199.764,230.797 199.000 C 230.574 198.485,230.533 198.913,230.682 200.200 M102.404 201.822 C 102.395 202.693,106.984 206.404,108.062 206.396 C 108.358 206.394,107.673 205.861,106.541 205.212 C 105.409 204.562,104.016 203.439,103.445 202.715 C 102.875 201.992,102.407 201.590,102.404 201.822 M279.000 202.000 C 277.981 202.438,279.032 202.438,280.400 202.000 C 281.204 201.743,281.243 201.677,280.600 201.668 C 280.160 201.662,279.440 201.811,279.000 202.000 M276.000 202.800 C 275.467 203.145,275.467 203.188,276.000 203.188 C 276.330 203.188,276.870 203.013,277.200 202.800 C 277.733 202.455,277.733 202.412,277.200 202.412 C 276.870 202.412,276.330 202.587,276.000 202.800 M280.734 203.387 C 279.391 204.299,277.598 206.623,277.601 207.447 C 277.602 207.641,277.987 207.170,278.456 206.400 C 279.314 204.992,280.097 204.190,281.721 203.056 C 282.205 202.718,282.507 202.433,282.393 202.421 C 282.279 202.409,281.532 202.844,280.734 203.387 M230.862 203.800 C 230.822 204.460,230.689 205.450,230.567 206.000 C 230.376 206.860,230.408 206.901,230.796 206.293 C 231.044 205.904,231.177 204.914,231.091 204.093 C 230.956 202.804,230.925 202.764,230.862 203.800 M197.628 204.433 C 197.644 205.185,197.812 206.160,198.003 206.600 C 198.226 207.115,198.267 206.687,198.118 205.400 C 197.844 203.022,197.589 202.519,197.628 204.433 M268.631 207.272 C 267.844 208.192,267.211 209.137,267.224 209.372 C 267.236 209.607,267.461 209.457,267.724 209.038 C 267.986 208.619,268.714 207.674,269.341 206.938 C 269.969 206.202,270.388 205.600,270.273 205.600 C 270.157 205.600,269.418 206.352,268.631 207.272 M126.509 208.400 C 126.509 209.390,126.587 209.795,126.682 209.300 C 126.778 208.805,126.778 207.995,126.682 207.500 C 126.587 207.005,126.509 207.410,126.509 208.400 M208.847 208.433 C 208.873 209.405,209.042 210.740,209.221 211.400 C 209.427 212.157,209.465 211.566,209.325 209.800 C 209.071 206.621,208.776 205.776,208.847 208.433 M219.464 209.350 C 219.301 210.863,219.250 212.183,219.351 212.284 C 219.614 212.547,220.110 208.250,219.919 207.353 C 219.831 206.939,219.626 207.838,219.464 209.350 M101.600 208.982 C 101.600 209.768,101.759 210.723,101.953 211.105 C 102.148 211.487,102.536 212.290,102.815 212.889 C 103.451 214.252,105.757 216.800,106.354 216.800 C 106.599 216.800,106.801 216.935,106.803 217.100 C 106.808 217.543,108.821 218.400,109.856 218.400 C 110.349 218.400,110.864 218.580,111.000 218.800 C 111.136 219.020,112.677 219.200,114.424 219.200 C 116.275 219.200,117.600 219.033,117.600 218.800 C 117.600 218.565,116.208 218.400,114.224 218.400 C 112.367 218.400,110.736 218.220,110.600 218.000 C 110.464 217.780,109.991 217.600,109.548 217.600 C 106.896 217.600,102.400 212.449,102.400 209.411 C 102.400 208.661,102.220 207.936,102.000 207.800 C 101.762 207.653,101.600 208.131,101.600 208.982 M113.600 208.400 C 113.930 208.613,114.470 208.788,114.800 208.788 C 115.333 208.788,115.333 208.745,114.800 208.400 C 114.470 208.187,113.930 208.012,113.600 208.012 C 113.067 208.012,113.067 208.055,113.600 208.400 M285.754 209.600 C 285.613 210.480,285.341 211.200,285.149 211.200 C 284.957 211.200,284.800 211.439,284.800 211.730 C 284.800 212.700,282.814 214.144,281.096 214.424 L 279.400 214.700 280.846 214.750 C 281.772 214.782,282.679 214.496,283.367 213.954 C 285.270 212.458,284.948 213.490,282.862 215.576 C 281.749 216.689,280.985 217.600,281.164 217.600 C 281.876 217.600,285.231 213.543,285.458 212.408 C 285.591 211.744,285.858 211.200,286.050 211.200 C 286.243 211.200,286.400 210.829,286.400 210.376 C 286.400 209.923,286.580 209.664,286.800 209.800 C 287.251 210.079,287.319 209.576,286.957 208.633 C 286.534 207.531,286.018 207.945,285.754 209.600 M277.309 210.000 C 277.309 210.990,277.387 211.395,277.482 210.900 C 277.578 210.405,277.578 209.595,277.482 209.100 C 277.387 208.605,277.309 209.010,277.309 210.000 M118.600 210.073 C 119.040 210.320,119.940 210.893,120.600 211.345 C 121.580 212.018,121.695 212.038,121.229 211.458 C 120.915 211.067,120.159 210.489,119.549 210.174 C 118.249 209.501,117.426 209.414,118.600 210.073 M128.813 210.251 C 128.780 212.436,131.646 216.583,134.050 217.826 C 135.914 218.790,135.792 218.469,133.774 217.100 C 131.426 215.507,130.523 214.315,129.565 211.541 C 129.159 210.363,128.820 209.783,128.813 210.251 M199.200 209.828 C 199.200 210.941,203.473 215.460,205.600 216.597 C 206.434 217.042,205.765 216.423,203.714 214.849 C 202.787 214.137,201.451 212.665,200.747 211.577 C 199.522 209.688,199.200 209.323,199.200 209.828 M228.253 211.192 C 227.668 212.076,227.326 212.798,227.494 212.795 C 227.879 212.789,229.717 209.984,229.487 209.754 C 229.394 209.660,228.838 210.307,228.253 211.192 M266.674 211.423 C 266.547 212.206,266.602 213.241,266.796 213.723 C 267.064 214.388,267.155 214.043,267.175 212.300 C 267.204 209.681,267.011 209.344,266.674 211.423 M164.055 211.200 C 163.990 212.923,165.638 215.879,167.400 217.200 C 167.840 217.530,167.547 217.059,166.748 216.152 C 165.437 214.664,164.796 213.329,164.272 211.000 C 164.128 210.358,164.085 210.397,164.055 211.200 M254.455 211.200 C 254.390 212.923,256.038 215.879,257.800 217.200 C 258.240 217.530,257.947 217.059,257.148 216.152 C 255.837 214.664,255.196 213.329,254.672 211.000 C 254.528 210.358,254.485 210.397,254.455 211.200 M125.659 212.188 C 125.148 213.600,122.182 217.115,121.812 216.746 C 121.710 216.643,121.823 215.918,122.063 215.134 C 122.359 214.170,122.371 213.477,122.100 212.993 C 121.784 212.428,121.708 212.621,121.742 213.905 C 121.789 215.697,120.911 217.006,119.200 217.694 C 118.589 217.939,118.400 218.170,118.715 218.286 C 120.615 218.989,126.955 213.066,126.326 211.177 C 126.246 210.938,125.946 211.394,125.659 212.188 M143.232 212.320 C 143.196 212.898,144.307 215.200,144.621 215.200 C 144.731 215.200,144.571 214.705,144.265 214.100 C 143.960 213.495,143.609 212.730,143.486 212.400 C 143.336 211.997,143.253 211.971,143.232 212.320 M233.632 212.320 C 233.596 212.898,234.707 215.200,235.021 215.200 C 235.131 215.200,234.971 214.705,234.665 214.100 C 234.360 213.495,234.009 212.730,233.886 212.400 C 233.736 211.997,233.653 211.971,233.632 212.320 M218.600 214.000 C 218.450 214.473,218.417 214.950,218.527 215.060 C 218.637 215.170,218.850 214.873,219.000 214.400 C 219.150 213.927,219.183 213.450,219.073 213.340 C 218.963 213.230,218.750 213.527,218.600 214.000 M225.993 214.113 C 225.439 214.601,224.449 215.415,223.793 215.922 C 223.137 216.429,222.960 216.670,223.400 216.457 C 224.233 216.054,227.550 213.236,227.200 213.229 C 227.090 213.227,226.547 213.625,225.993 214.113 M288.000 213.528 C 288.000 214.151,290.884 217.223,292.020 217.810 C 293.946 218.806,293.859 218.465,291.865 217.200 C 290.825 216.541,289.602 215.371,289.147 214.600 C 288.325 213.207,288.000 212.903,288.000 213.528 M186.954 215.620 C 188.209 217.641,191.745 219.458,193.693 219.083 C 194.421 218.943,194.363 218.896,193.400 218.846 C 191.638 218.753,189.116 217.487,187.626 215.949 C 186.615 214.905,186.463 214.831,186.954 215.620 M146.167 216.962 C 147.028 217.753,147.928 218.389,148.167 218.376 C 148.405 218.364,148.261 218.139,147.846 217.876 C 147.432 217.614,146.532 216.978,145.846 216.462 C 145.029 215.847,145.139 216.019,146.167 216.962 M210.400 215.833 C 210.400 216.062,210.760 216.636,211.200 217.108 C 212.221 218.203,212.206 218.399,211.100 218.406 C 210.372 218.411,210.315 218.486,210.800 218.800 C 211.130 219.013,212.750 219.188,214.400 219.188 C 216.050 219.188,217.670 219.013,218.000 218.800 C 218.485 218.486,218.428 218.411,217.700 218.406 C 216.594 218.399,216.579 218.203,217.600 217.108 C 218.040 216.636,218.400 216.062,218.400 215.833 C 218.400 215.605,217.847 216.089,217.171 216.909 C 216.140 218.160,215.693 218.400,214.400 218.400 C 213.107 218.400,212.660 218.160,211.629 216.909 C 210.953 216.089,210.400 215.605,210.400 215.833 M236.567 216.962 C 237.428 217.753,238.328 218.389,238.567 218.376 C 238.805 218.364,238.661 218.139,238.246 217.876 C 237.832 217.614,236.932 216.978,236.246 216.462 C 235.429 215.847,235.539 216.019,236.567 216.962 M268.411 217.015 C 269.889 218.801,276.141 219.985,277.973 218.825 C 278.332 218.598,277.638 218.545,276.113 218.683 C 272.971 218.968,271.243 218.625,269.351 217.341 C 268.394 216.691,268.042 216.569,268.411 217.015 M149.200 218.788 C 149.530 219.008,150.415 219.191,151.167 219.194 C 152.960 219.202,152.641 218.975,150.400 218.650 C 149.142 218.467,148.781 218.509,149.200 218.788 M170.400 218.805 C 170.730 219.016,171.525 219.191,172.167 219.194 C 173.714 219.202,173.377 218.971,171.400 218.668 C 170.310 218.501,169.991 218.545,170.400 218.805 M239.600 218.788 C 239.930 219.008,240.815 219.191,241.567 219.194 C 243.360 219.202,243.041 218.975,240.800 218.650 C 239.542 218.467,239.181 218.509,239.600 218.788 M260.800 218.805 C 261.130 219.016,261.925 219.191,262.567 219.194 C 264.114 219.202,263.777 218.971,261.800 218.668 C 260.710 218.501,260.391 218.545,260.800 218.805 " stroke="none" fill="#9c9474" fill-rule="evenodd"></path><path id="path3" d="M133.105 182.683 C 133.602 182.779,134.322 182.775,134.705 182.675 C 135.087 182.575,134.680 182.496,133.800 182.501 C 132.920 182.505,132.607 182.587,133.105 182.683 M117.000 186.800 C 117.136 187.020,117.012 187.203,116.724 187.206 C 116.343 187.211,116.364 187.318,116.800 187.600 C 117.583 188.106,118.113 188.106,117.800 187.600 C 117.664 187.380,117.788 187.197,118.076 187.194 C 118.457 187.189,118.436 187.082,118.000 186.800 C 117.217 186.294,116.687 186.294,117.000 186.800 M163.100 187.089 C 163.815 187.178,164.985 187.178,165.700 187.089 C 166.415 187.001,165.830 186.928,164.400 186.928 C 162.970 186.928,162.385 187.001,163.100 187.089 M184.307 187.090 C 185.026 187.179,186.106 187.177,186.707 187.086 C 187.308 186.995,186.720 186.922,185.400 186.924 C 184.080 186.926,183.588 187.001,184.307 187.090 M253.500 187.089 C 254.215 187.178,255.385 187.178,256.100 187.089 C 256.815 187.001,256.230 186.928,254.800 186.928 C 253.370 186.928,252.785 187.001,253.500 187.089 M143.052 187.516 C 142.944 187.690,143.473 187.761,144.228 187.673 C 144.983 187.585,145.600 187.442,145.600 187.356 C 145.600 187.055,143.245 187.203,143.052 187.516 M233.452 187.516 C 233.344 187.690,233.873 187.761,234.628 187.673 C 235.383 187.585,236.000 187.442,236.000 187.356 C 236.000 187.055,233.645 187.203,233.452 187.516 M107.170 189.100 L 106.200 190.200 107.400 189.200 C 108.060 188.650,108.675 188.155,108.767 188.100 C 108.858 188.045,108.755 188.000,108.536 188.000 C 108.318 188.000,107.703 188.495,107.170 189.100 M128.575 198.800 C 128.575 204.850,128.631 207.325,128.699 204.300 C 128.767 201.275,128.767 196.325,128.699 193.300 C 128.631 190.275,128.575 192.750,128.575 198.800 M150.800 190.200 C 151.546 190.970,152.247 191.600,152.357 191.600 C 152.467 191.600,151.946 190.970,151.200 190.200 C 150.454 189.430,149.753 188.800,149.643 188.800 C 149.533 188.800,150.054 189.430,150.800 190.200 M241.200 190.200 C 241.946 190.970,242.647 191.600,242.757 191.600 C 242.867 191.600,242.346 190.970,241.600 190.200 C 240.854 189.430,240.153 188.800,240.043 188.800 C 239.933 188.800,240.454 189.430,241.200 190.200 M271.913 190.300 C 270.707 191.547,270.555 191.884,271.010 192.296 C 271.313 192.570,271.658 192.630,271.781 192.430 C 271.904 192.231,271.779 191.986,271.502 191.885 C 271.175 191.766,271.481 191.196,272.378 190.251 C 273.137 189.453,273.668 188.800,273.560 188.800 C 273.451 188.800,272.710 189.475,271.913 190.300 M292.800 188.925 C 292.800 188.994,293.385 189.579,294.100 190.225 L 295.400 191.400 294.225 190.100 C 293.130 188.888,292.800 188.616,292.800 188.925 M135.200 189.725 C 135.200 189.794,135.785 190.379,136.500 191.025 L 137.800 192.200 136.625 190.900 C 135.530 189.688,135.200 189.416,135.200 189.725 M201.781 191.700 L 200.200 193.400 201.900 191.819 C 203.481 190.348,203.784 190.000,203.481 190.000 C 203.416 190.000,202.651 190.765,201.781 191.700 M226.400 191.400 C 227.146 192.170,227.847 192.800,227.957 192.800 C 228.067 192.800,227.546 192.170,226.800 191.400 C 226.054 190.630,225.353 190.000,225.243 190.000 C 225.133 190.000,225.654 190.630,226.400 191.400 M269.875 192.967 C 269.455 194.035,270.147 194.591,270.837 193.740 C 271.147 193.359,271.189 193.173,270.930 193.328 C 270.653 193.494,270.402 193.321,270.318 192.905 C 270.189 192.261,270.150 192.266,269.875 192.967 M123.200 193.186 C 123.200 193.398,123.560 193.765,124.000 194.000 C 124.804 194.430,125.040 194.144,124.494 193.400 C 124.095 192.857,123.200 192.709,123.200 193.186 M163.769 202.200 C 163.770 206.820,163.828 208.655,163.899 206.278 C 163.970 203.901,163.969 200.121,163.898 197.878 C 163.827 195.635,163.769 197.580,163.769 202.200 M254.169 202.200 C 254.170 206.820,254.228 208.655,254.299 206.278 C 254.370 203.901,254.369 200.121,254.298 197.878 C 254.227 195.635,254.169 197.580,254.169 202.200 M209.293 196.400 C 209.293 197.170,209.375 197.485,209.476 197.100 C 209.576 196.715,209.576 196.085,209.476 195.700 C 209.375 195.315,209.293 195.630,209.293 196.400 M219.293 196.400 C 219.293 197.170,219.375 197.485,219.476 197.100 C 219.576 196.715,219.576 196.085,219.476 195.700 C 219.375 195.315,219.293 195.630,219.293 196.400 M297.073 196.800 C 297.204 197.790,297.376 198.675,297.456 198.767 C 297.757 199.114,297.528 196.564,297.190 195.800 C 296.953 195.266,296.914 195.598,297.073 196.800 M265.200 208.481 C 265.090 214.355,265.138 219.023,265.307 218.854 C 265.476 218.685,265.565 213.878,265.506 208.173 L 265.399 197.800 265.200 208.481 M208.950 202.600 C 208.951 205.020,209.016 205.958,209.096 204.685 C 209.176 203.412,209.175 201.432,209.094 200.285 C 209.014 199.138,208.949 200.180,208.950 202.600 M219.750 202.600 C 219.751 205.020,219.816 205.958,219.896 204.685 C 219.976 203.412,219.975 201.432,219.894 200.285 C 219.814 199.138,219.749 200.180,219.750 202.600 M153.772 209.600 C 153.772 214.770,153.829 216.885,153.899 214.300 C 153.968 211.715,153.968 207.485,153.899 204.900 C 153.829 202.315,153.772 204.430,153.772 209.600 M174.799 209.681 C 174.690 214.895,174.738 219.023,174.908 218.853 C 175.077 218.683,175.167 214.417,175.107 209.372 L 174.999 200.200 174.799 209.681 M244.172 209.600 C 244.172 214.770,244.229 216.885,244.299 214.300 C 244.368 211.715,244.368 207.485,244.299 204.900 C 244.229 202.315,244.172 204.430,244.172 209.600 M219.293 208.800 C 219.293 209.570,219.375 209.885,219.476 209.500 C 219.576 209.115,219.576 208.485,219.476 208.100 C 219.375 207.715,219.293 208.030,219.293 208.800 M286.400 210.153 C 286.400 210.483,286.580 210.864,286.800 211.000 C 287.020 211.136,287.200 210.977,287.200 210.647 C 287.200 210.317,287.020 209.936,286.800 209.800 C 286.580 209.664,286.400 209.823,286.400 210.153 M102.406 210.524 C 102.403 210.922,102.222 211.137,102.005 211.003 C 101.768 210.857,101.717 211.040,101.878 211.459 C 102.045 211.893,102.208 211.976,102.308 211.677 C 102.396 211.412,102.633 211.297,102.834 211.421 C 103.311 211.716,103.292 211.162,102.800 210.400 C 102.471 209.891,102.411 209.910,102.406 210.524 M285.063 210.704 C 284.965 210.867,285.126 211.223,285.421 211.496 C 285.716 211.769,286.038 211.859,286.137 211.696 C 286.235 211.533,286.074 211.177,285.779 210.904 C 285.484 210.631,285.162 210.541,285.063 210.704 M104.000 213.725 C 104.000 213.794,104.585 214.379,105.300 215.025 L 106.600 216.200 105.425 214.900 C 104.330 213.688,104.000 213.416,104.000 213.725 M131.600 216.200 C 132.346 216.970,133.047 217.600,133.157 217.600 C 133.267 217.600,132.746 216.970,132.000 216.200 C 131.254 215.430,130.553 214.800,130.443 214.800 C 130.333 214.800,130.854 215.430,131.600 216.200 M282.975 216.100 L 281.800 217.400 283.100 216.225 C 283.815 215.579,284.400 214.994,284.400 214.925 C 284.400 214.616,284.070 214.888,282.975 216.100 M110.600 218.000 C 110.736 218.220,110.522 218.403,110.124 218.406 C 109.510 218.411,109.491 218.471,110.000 218.800 C 110.783 219.306,111.313 219.306,111.000 218.800 C 110.864 218.580,111.078 218.397,111.476 218.394 C 112.090 218.389,112.109 218.329,111.600 218.000 C 110.817 217.494,110.287 217.494,110.600 218.000 M117.867 217.867 C 117.386 218.347,117.587 219.180,118.133 218.970 C 118.427 218.858,118.667 218.503,118.667 218.183 C 118.667 217.565,118.309 217.424,117.867 217.867 " stroke="none" fill="#b2ab94" fill-rule="evenodd"></path><path id="path4" d="M133.105 170.683 C 133.602 170.779,134.322 170.775,134.705 170.675 C 135.087 170.575,134.680 170.496,133.800 170.501 C 132.920 170.505,132.607 170.587,133.105 170.683 M130.493 171.332 C 127.099 173.217,126.536 178.157,129.389 181.011 C 130.374 181.995,131.496 182.800,131.883 182.800 C 132.307 182.800,132.033 182.505,131.194 182.059 C 126.979 179.820,126.849 174.066,130.955 171.562 C 132.329 170.724,131.937 170.530,130.493 171.332 M138.766 172.991 C 141.354 176.328,139.736 181.521,135.800 182.507 C 135.081 182.687,135.092 182.712,135.911 182.754 C 139.682 182.946,141.823 176.087,138.966 172.967 L 137.531 171.400 138.766 172.991 M108.936 186.306 C 108.681 186.468,110.406 186.540,112.769 186.466 C 118.895 186.276,121.893 187.806,123.944 192.171 C 124.825 194.044,125.111 197.200,124.400 197.200 C 124.180 197.200,124.000 196.491,124.000 195.624 C 124.000 194.757,123.820 193.936,123.600 193.800 C 123.380 193.664,123.200 193.265,123.200 192.914 C 123.200 189.199,114.336 185.794,109.946 187.822 C 109.151 188.189,109.010 188.330,109.600 188.166 C 116.702 186.190,122.695 189.464,123.577 195.800 C 123.724 196.857,124.004 197.400,124.400 197.400 C 125.129 197.400,125.488 193.728,124.824 193.064 C 124.591 192.831,124.400 192.311,124.400 191.909 C 124.400 188.307,112.553 184.014,108.936 186.306 M210.138 186.306 C 209.884 186.468,211.802 186.600,214.400 186.600 C 216.998 186.600,218.916 186.468,218.662 186.306 C 218.408 186.144,216.490 186.012,214.400 186.012 C 212.310 186.012,210.392 186.144,210.138 186.306 M278.083 186.340 C 277.794 186.524,278.589 186.596,279.883 186.504 C 283.042 186.279,283.458 186.068,280.800 186.038 C 279.590 186.024,278.367 186.160,278.083 186.340 M284.200 186.200 C 285.161 186.528,288.825 186.662,288.334 186.351 C 288.040 186.165,286.900 186.024,285.800 186.038 C 284.700 186.052,283.980 186.125,284.200 186.200 M163.500 186.682 C 163.995 186.778,164.805 186.778,165.300 186.682 C 165.795 186.587,165.390 186.509,164.400 186.509 C 163.410 186.509,163.005 186.587,163.500 186.682 M184.300 186.682 C 184.795 186.778,185.605 186.778,186.100 186.682 C 186.595 186.587,186.190 186.509,185.200 186.509 C 184.210 186.509,183.805 186.587,184.300 186.682 M253.900 186.682 C 254.395 186.778,255.205 186.778,255.700 186.682 C 256.195 186.587,255.790 186.509,254.800 186.509 C 253.810 186.509,253.405 186.587,253.900 186.682 M105.125 188.195 C 102.004 190.486,99.683 195.933,100.778 198.400 C 101.207 199.368,101.215 199.361,101.033 198.160 C 100.484 194.551,102.805 189.901,106.101 188.012 C 107.255 187.349,107.930 186.810,107.600 186.814 C 107.270 186.817,106.156 187.439,105.125 188.195 M128.407 187.586 C 128.135 188.095,128.027 192.017,128.100 198.686 L 128.214 209.000 128.307 198.524 C 128.406 187.359,128.409 187.344,130.400 187.506 C 131.304 187.579,131.323 187.552,130.600 187.222 C 129.356 186.653,128.863 186.735,128.407 187.586 M142.800 187.191 C 142.110 187.626,141.671 207.054,142.275 210.400 C 142.489 211.583,142.669 207.951,142.800 199.800 L 143.000 187.400 144.977 187.471 C 146.302 187.519,146.764 187.422,146.377 187.178 C 145.624 186.701,143.564 186.709,142.800 187.191 M159.220 187.416 C 157.669 188.267,155.239 190.796,154.523 192.306 L 153.868 193.687 153.287 192.543 C 152.123 190.251,149.006 187.584,147.520 187.609 C 147.234 187.614,147.722 187.945,148.603 188.346 C 150.418 189.170,152.382 191.226,153.168 193.122 C 153.724 194.465,154.400 194.829,154.400 193.786 C 154.400 191.624,158.451 187.740,161.400 187.074 C 162.023 186.933,161.979 186.891,161.200 186.886 C 160.650 186.882,159.759 187.120,159.220 187.416 M168.400 187.458 C 170.366 188.134,172.085 189.532,173.249 191.400 C 173.660 192.060,173.998 192.399,173.999 192.154 C 174.004 190.506,169.427 186.775,167.454 186.819 C 166.956 186.830,167.349 187.096,168.400 187.458 M181.045 187.128 C 180.933 187.308,181.373 187.377,182.021 187.282 C 182.670 187.187,183.200 187.040,183.200 186.955 C 183.200 186.650,181.243 186.807,181.045 187.128 M188.751 187.201 C 190.977 187.727,193.266 189.624,194.483 191.953 C 195.097 193.129,195.600 193.836,195.600 193.524 C 195.600 191.338,190.673 186.751,188.422 186.841 C 187.552 186.876,187.601 186.929,188.751 187.201 M206.000 188.025 C 203.846 189.210,200.696 191.949,199.976 193.261 C 199.776 193.625,200.677 192.859,201.978 191.558 C 203.439 190.097,205.309 188.736,206.872 187.997 C 208.262 187.339,209.130 186.804,208.800 186.808 C 208.470 186.811,207.210 187.359,206.000 188.025 M221.599 187.831 C 222.808 188.394,224.113 189.140,224.499 189.489 C 224.884 189.838,225.200 189.941,225.200 189.718 C 225.200 189.254,220.770 186.798,219.944 186.804 C 219.645 186.806,220.389 187.268,221.599 187.831 M233.200 187.191 C 232.510 187.626,232.071 207.054,232.675 210.400 C 232.889 211.583,233.069 207.951,233.200 199.800 L 233.400 187.400 235.377 187.471 C 236.702 187.519,237.164 187.422,236.777 187.178 C 236.024 186.701,233.964 186.709,233.200 187.191 M249.620 187.416 C 248.069 188.267,245.639 190.796,244.923 192.306 L 244.268 193.687 243.687 192.543 C 242.523 190.251,239.406 187.584,237.920 187.609 C 237.634 187.614,238.122 187.945,239.003 188.346 C 240.818 189.170,242.782 191.226,243.568 193.122 C 244.124 194.465,244.800 194.829,244.800 193.786 C 244.800 191.624,248.851 187.740,251.800 187.074 C 252.423 186.933,252.379 186.891,251.600 186.886 C 251.050 186.882,250.159 187.120,249.620 187.416 M258.023 187.179 C 259.662 187.676,260.902 188.408,262.383 189.748 C 263.143 190.437,263.503 190.641,263.183 190.203 C 261.896 188.441,259.264 186.778,257.854 186.834 C 257.105 186.865,257.126 186.907,258.023 187.179 M273.752 188.333 C 272.447 189.177,271.069 190.340,270.690 190.919 C 269.584 192.607,269.883 192.509,271.633 190.610 C 272.532 189.636,274.187 188.380,275.312 187.819 C 276.437 187.259,277.080 186.800,276.741 186.800 C 276.401 186.800,275.056 187.490,273.752 188.333 M290.626 187.556 C 293.587 188.901,295.843 191.489,296.938 194.800 C 297.095 195.273,297.144 195.254,297.168 194.712 C 297.276 192.362,291.942 186.776,289.622 186.809 C 289.280 186.814,289.732 187.150,290.626 187.556 M212.082 188.323 C 211.023 189.313,209.743 192.276,210.185 192.718 C 210.274 192.807,210.552 192.123,210.801 191.196 C 212.090 186.411,217.172 186.762,218.161 191.704 C 218.295 192.377,218.489 192.844,218.592 192.741 C 219.040 192.293,217.866 189.527,216.755 188.417 C 215.192 186.854,213.687 186.824,212.082 188.323 M132.727 188.208 C 134.786 189.102,136.364 190.358,137.636 192.113 C 138.276 192.997,138.800 193.554,138.800 193.351 C 138.800 192.026,133.543 187.577,132.022 187.616 C 131.680 187.624,131.997 187.891,132.727 188.208 M178.124 188.987 C 177.233 189.750,176.195 191.023,175.819 191.817 C 175.423 192.651,174.921 193.178,174.629 193.067 C 174.282 192.933,174.182 193.174,174.309 193.837 C 174.583 195.267,174.889 195.019,176.065 192.415 C 176.815 190.753,177.631 189.693,178.825 188.828 C 179.757 188.153,180.345 187.600,180.132 187.600 C 179.919 187.600,179.015 188.224,178.124 188.987 M278.500 188.287 C 279.105 188.378,280.095 188.378,280.700 188.287 C 281.305 188.195,280.810 188.120,279.600 188.120 C 278.390 188.120,277.895 188.195,278.500 188.287 M107.270 189.326 C 106.004 190.673,106.105 192.768,107.500 194.104 C 108.520 195.081,111.600 196.664,111.600 196.211 C 111.600 196.101,110.927 195.730,110.105 195.386 C 106.826 194.016,105.758 191.360,107.670 189.326 C 108.148 188.817,108.449 188.400,108.339 188.400 C 108.229 188.400,107.748 188.817,107.270 189.326 M275.188 189.300 C 274.138 189.830,272.791 191.021,271.908 192.200 C 270.497 194.084,269.721 194.485,269.863 193.257 C 269.906 192.882,269.797 192.843,269.510 193.130 C 269.037 193.603,269.370 194.800,269.975 194.800 C 270.195 194.800,271.120 193.791,272.031 192.558 C 273.167 191.020,274.238 190.073,275.443 189.540 C 276.410 189.112,277.200 188.681,277.200 188.581 C 277.200 188.300,277.088 188.340,275.188 189.300 M282.600 188.867 C 284.010 189.647,285.200 190.919,285.200 191.646 C 285.200 192.035,285.399 192.476,285.643 192.626 C 285.945 192.813,285.998 192.597,285.812 191.950 C 285.497 190.856,283.057 188.394,282.306 188.412 C 282.028 188.419,282.160 188.623,282.600 188.867 M227.101 191.736 C 228.016 192.801,229.222 194.591,229.782 195.715 C 230.342 196.838,230.800 197.480,230.800 197.141 C 230.800 196.283,227.953 192.010,226.576 190.800 C 225.879 190.188,226.083 190.551,227.101 191.736 M159.505 190.683 C 160.002 190.779,160.722 190.775,161.105 190.675 C 161.487 190.575,161.080 190.496,160.200 190.501 C 159.320 190.505,159.007 190.587,159.505 190.683 M178.502 191.505 C 177.106 192.809,176.201 194.464,175.824 196.400 C 175.623 197.430,175.662 197.641,175.970 197.200 C 176.200 196.870,176.391 196.240,176.395 195.800 C 176.431 192.084,181.561 189.306,183.596 191.900 C 184.071 192.505,184.329 192.730,184.169 192.400 C 183.035 190.059,180.482 189.655,178.502 191.505 M249.905 190.683 C 250.402 190.779,251.122 190.775,251.505 190.675 C 251.887 190.575,251.480 190.496,250.600 190.501 C 249.720 190.505,249.407 190.587,249.905 190.683 M157.570 191.313 C 157.223 191.581,156.605 192.340,156.197 193.000 C 155.420 194.254,155.473 194.213,157.378 192.100 C 158.591 190.754,158.660 190.469,157.570 191.313 M247.970 191.313 C 247.623 191.581,247.005 192.340,246.597 193.000 C 245.820 194.254,245.873 194.213,247.778 192.100 C 248.991 190.754,249.060 190.469,247.970 191.313 M163.062 193.400 C 163.196 194.280,163.372 195.075,163.453 195.167 C 163.756 195.510,163.529 193.368,163.181 192.600 C 162.929 192.042,162.893 192.285,163.062 193.400 M253.462 193.400 C 253.596 194.280,253.772 195.075,253.853 195.167 C 254.156 195.510,253.929 193.368,253.581 192.600 C 253.329 192.042,253.293 192.285,253.462 193.400 M264.752 194.087 C 264.937 195.198,264.993 195.255,265.119 194.454 C 265.201 193.933,265.103 193.343,264.901 193.141 C 264.679 192.919,264.621 193.293,264.752 194.087 M184.486 202.451 C 184.392 212.727,184.456 213.117,186.722 216.235 C 188.356 218.483,190.974 219.674,193.936 219.519 L 196.200 219.400 196.306 207.475 C 196.364 200.917,196.274 195.304,196.106 195.002 C 195.938 194.701,195.855 200.022,195.921 206.827 L 196.043 219.200 193.805 219.200 C 190.298 219.200,187.353 217.332,185.737 214.083 C 185.102 212.806,184.970 211.240,184.786 202.800 L 184.573 193.000 184.486 202.451 M209.462 196.500 C 209.157 200.417,209.194 206.382,209.547 210.000 C 209.686 211.430,209.801 208.235,209.802 202.900 C 209.803 197.565,209.785 193.200,209.761 193.200 C 209.738 193.200,209.603 194.685,209.462 196.500 M219.068 199.000 C 219.235 204.359,218.890 210.406,218.225 213.800 C 218.039 214.746,218.118 214.669,218.596 213.436 C 219.374 211.430,219.794 200.612,219.265 196.200 C 218.934 193.435,218.907 193.815,219.068 199.000 M286.081 196.900 L 286.000 200.400 284.300 200.406 C 283.365 200.409,282.330 200.585,282.000 200.796 C 281.599 201.053,282.128 201.100,283.600 200.938 C 286.483 200.622,286.456 200.663,286.299 196.763 L 286.163 193.400 286.081 196.900 M139.152 195.287 C 139.337 196.398,139.393 196.455,139.519 195.654 C 139.601 195.133,139.503 194.543,139.301 194.341 C 139.079 194.119,139.021 194.493,139.152 195.287 M154.901 195.846 C 154.353 197.684,153.869 202.352,154.387 200.800 C 154.570 200.250,154.738 199.113,154.760 198.274 C 154.782 197.434,154.992 196.389,155.226 195.952 C 155.460 195.514,155.587 194.961,155.508 194.724 C 155.429 194.486,155.156 194.991,154.901 195.846 M198.621 195.424 C 198.252 195.987,198.007 196.702,198.075 197.012 C 198.144 197.323,198.502 196.863,198.870 195.989 C 199.646 194.151,199.569 193.977,198.621 195.424 M245.301 195.846 C 244.753 197.684,244.269 202.352,244.787 200.800 C 244.970 200.250,245.138 199.113,245.160 198.274 C 245.182 197.434,245.392 196.389,245.626 195.952 C 245.860 195.514,245.987 194.961,245.908 194.724 C 245.829 194.486,245.556 194.991,245.301 195.846 M265.400 207.216 L 265.400 219.000 262.737 219.000 C 261.273 219.000,260.158 219.135,260.261 219.300 C 260.566 219.792,265.000 219.640,265.520 219.120 C 265.784 218.856,266.000 217.675,266.000 216.496 C 266.000 215.317,266.153 214.447,266.340 214.563 C 266.527 214.678,266.598 213.918,266.497 212.873 C 266.150 209.259,268.418 206.089,272.973 203.820 C 274.088 203.265,274.792 202.808,274.538 202.805 C 272.710 202.785,268.028 206.499,266.870 208.889 L 266.040 210.600 265.973 204.200 C 265.936 200.680,265.792 197.267,265.653 196.616 C 265.514 195.964,265.400 200.734,265.400 207.216 M297.517 207.480 L 297.635 219.305 295.594 219.109 C 294.347 218.989,293.697 219.057,293.922 219.282 C 294.125 219.485,295.081 219.595,296.046 219.526 L 297.800 219.400 297.906 208.076 C 297.965 201.847,297.875 196.505,297.706 196.203 C 297.538 195.901,297.453 200.976,297.517 207.480 M112.600 196.800 C 113.701 197.273,114.092 197.273,113.800 196.800 C 113.664 196.580,113.158 196.413,112.676 196.428 C 111.831 196.455,111.829 196.469,112.600 196.800 M139.693 207.951 L 139.600 219.302 137.613 219.111 C 136.521 219.006,135.722 219.073,135.837 219.260 C 136.175 219.806,139.601 219.664,139.819 219.094 C 139.926 218.816,139.962 213.641,139.900 207.594 L 139.787 196.600 139.693 207.951 M115.000 197.600 C 116.101 198.073,116.492 198.073,116.200 197.600 C 116.064 197.380,115.558 197.213,115.076 197.228 C 114.231 197.255,114.229 197.269,115.000 197.600 M119.769 199.393 C 123.113 200.853,125.153 202.499,126.168 204.557 C 126.506 205.240,126.786 205.510,126.791 205.156 C 126.818 203.226,119.730 197.981,117.126 198.005 C 116.837 198.008,118.026 198.632,119.769 199.393 M175.196 208.400 L 175.000 219.000 172.337 219.000 C 170.873 219.000,169.758 219.135,169.861 219.300 C 170.200 219.846,174.672 219.636,175.158 219.051 C 175.480 218.663,175.581 215.457,175.503 208.151 L 175.393 197.800 175.196 208.400 M197.361 198.558 C 197.243 198.865,197.208 199.810,197.283 200.658 C 197.410 202.087,197.434 202.046,197.610 200.100 C 197.804 197.956,197.741 197.567,197.361 198.558 M231.000 202.599 C 231.000 205.087,231.135 207.039,231.300 206.937 C 231.465 206.836,231.600 204.884,231.600 202.600 C 231.600 200.316,231.465 198.364,231.300 198.261 C 231.135 198.159,231.000 200.111,231.000 202.599 M101.246 200.108 C 101.124 201.981,104.686 205.662,107.949 207.033 C 110.235 207.994,110.327 207.651,108.064 206.598 C 104.330 204.860,102.137 202.717,101.491 200.178 C 101.321 199.511,101.286 199.501,101.246 200.108 M277.400 201.697 C 276.740 201.924,275.949 202.179,275.643 202.264 C 275.336 202.349,275.177 202.511,275.289 202.623 C 275.402 202.735,276.282 202.563,277.247 202.241 C 278.211 201.919,279.540 201.580,280.200 201.488 C 281.318 201.331,281.304 201.319,280.000 201.302 C 279.230 201.293,278.060 201.471,277.400 201.697 M284.400 202.250 C 283.514 202.570,283.294 202.761,283.800 202.771 C 284.240 202.780,284.870 202.616,285.200 202.406 C 285.703 202.085,285.837 202.427,286.031 204.512 L 286.262 207.000 286.331 204.524 C 286.410 201.687,286.305 201.564,284.400 202.250 M281.355 203.562 C 280.117 204.317,278.759 205.966,278.278 207.300 C 277.832 208.535,278.340 208.048,279.044 206.564 C 279.418 205.775,280.417 204.671,281.263 204.111 C 282.594 203.230,283.070 202.796,282.700 202.801 C 282.645 202.802,282.040 203.145,281.355 203.562 M197.262 204.600 C 197.235 205.480,197.446 206.872,197.732 207.693 C 198.391 209.585,198.925 210.169,198.336 208.354 C 198.095 207.609,197.766 206.100,197.605 205.000 C 197.317 203.030,197.312 203.024,197.262 204.600 M126.970 208.441 C 126.949 210.694,126.992 210.844,127.331 209.700 C 127.566 208.906,127.575 207.911,127.355 207.141 C 127.044 206.056,126.991 206.236,126.970 208.441 M101.358 207.268 C 100.317 208.952,101.978 213.533,104.541 216.045 C 106.054 217.529,106.689 217.908,109.719 219.144 C 115.577 221.533,126.800 216.696,126.800 211.782 C 126.800 211.412,126.305 212.055,125.700 213.211 C 123.184 218.020,114.941 220.873,109.719 218.744 C 106.625 217.482,105.997 217.086,104.476 215.437 C 102.083 212.840,100.387 207.200,102.000 207.200 C 102.220 207.200,102.400 207.735,102.400 208.389 C 102.400 211.419,105.366 215.574,108.484 216.912 C 111.916 218.385,117.182 219.000,117.800 218.000 C 117.936 217.780,118.372 217.600,118.769 217.600 C 120.090 217.600,121.607 215.649,121.533 214.045 L 121.466 212.600 121.311 214.058 C 120.795 218.929,111.075 219.378,105.830 214.773 C 104.467 213.576,102.927 210.341,102.717 208.231 C 102.590 206.964,101.864 206.449,101.358 207.268 M285.408 208.500 C 285.060 210.276,284.426 211.579,283.219 212.999 L 282.200 214.197 283.326 213.205 C 284.769 211.932,286.769 207.200,285.864 207.200 C 285.754 207.200,285.549 207.785,285.408 208.500 M230.446 208.050 C 230.221 211.211,224.211 217.022,219.600 218.539 C 219.083 218.710,219.086 218.741,219.621 218.768 C 222.806 218.930,231.358 210.606,230.661 208.024 C 230.515 207.482,230.487 207.485,230.446 208.050 M113.000 208.800 C 113.136 209.020,113.554 209.200,113.929 209.200 C 115.027 209.200,118.646 210.637,120.079 211.642 C 121.010 212.295,121.232 212.359,120.829 211.858 C 120.082 210.928,118.490 210.123,115.516 209.173 C 112.710 208.277,112.673 208.271,113.000 208.800 M277.709 210.000 C 277.709 210.990,277.787 211.395,277.882 210.900 C 277.978 210.405,277.978 209.595,277.882 209.100 C 277.787 208.605,277.709 209.010,277.709 210.000 M128.446 210.451 C 128.323 213.273,133.739 219.994,135.067 218.666 C 135.173 218.560,134.875 218.351,134.404 218.201 C 132.134 217.481,129.402 213.888,128.776 210.800 C 128.539 209.632,128.484 209.574,128.446 210.451 M198.813 210.138 C 198.732 212.298,207.453 219.405,209.283 218.670 C 209.617 218.536,209.558 218.452,209.114 218.432 C 208.323 218.395,205.157 216.696,203.396 215.363 C 202.333 214.558,201.574 213.655,199.396 210.600 C 199.082 210.160,198.820 209.952,198.813 210.138 M163.650 211.520 C 163.605 212.720,164.530 215.200,165.024 215.200 C 165.136 215.200,165.007 214.795,164.736 214.300 C 164.465 213.805,164.121 212.680,163.972 211.800 C 163.709 210.252,163.699 210.243,163.650 211.520 M254.050 211.520 C 254.005 212.720,254.930 215.200,255.424 215.200 C 255.536 215.200,255.407 214.795,255.136 214.300 C 254.865 213.805,254.521 212.680,254.372 211.800 C 254.109 210.252,254.099 210.243,254.050 211.520 M285.979 211.914 C 285.681 212.511,285.374 213.135,285.295 213.300 C 285.217 213.465,285.258 213.600,285.386 213.600 C 285.515 213.600,285.814 213.105,286.051 212.500 C 286.480 211.406,286.484 211.405,286.828 212.300 C 287.289 213.499,287.536 213.443,287.297 212.194 C 287.022 210.755,286.601 210.666,285.979 211.914 M142.802 213.021 C 142.805 214.317,145.660 217.671,147.600 218.660 C 149.356 219.555,154.000 220.020,154.000 219.300 C 154.000 219.135,153.091 219.063,151.980 219.140 C 148.472 219.383,145.468 217.598,143.820 214.289 C 143.247 213.140,142.801 212.584,142.802 213.021 M233.202 213.021 C 233.205 214.317,236.060 217.671,238.000 218.660 C 239.756 219.555,244.400 220.020,244.400 219.300 C 244.400 219.135,243.491 219.063,242.380 219.140 C 238.872 219.383,235.868 217.598,234.220 214.289 C 233.647 213.140,233.201 212.584,233.202 213.021 M210.247 213.866 C 210.865 216.373,212.730 218.377,214.459 218.391 C 215.420 218.399,218.000 216.143,218.000 215.295 C 218.000 215.142,217.447 215.689,216.771 216.509 C 214.746 218.965,210.800 217.395,210.800 214.132 C 210.800 213.646,210.613 213.132,210.384 212.990 C 210.110 212.821,210.064 213.121,210.247 213.866 M287.600 213.761 C 287.600 214.410,289.276 216.398,290.516 217.217 L 291.800 218.066 290.713 217.128 C 290.115 216.613,289.170 215.573,288.613 214.818 C 288.056 214.062,287.600 213.587,287.600 213.761 M283.626 215.707 C 282.487 217.111,282.442 217.229,283.363 216.400 C 284.320 215.538,285.456 213.986,285.114 214.007 C 285.051 214.011,284.382 214.776,283.626 215.707 M266.807 215.338 C 266.791 216.137,268.588 218.080,270.018 218.809 C 272.544 220.098,280.800 219.623,280.800 218.189 C 280.800 218.079,280.148 218.262,279.351 218.595 C 275.469 220.217,269.397 219.034,267.657 216.318 C 267.193 215.593,266.810 215.152,266.807 215.338 M166.928 217.300 C 167.794 218.125,168.700 218.800,168.940 218.800 C 169.181 218.800,168.933 218.502,168.389 218.139 C 167.845 217.775,166.939 217.100,166.376 216.639 C 165.813 216.177,166.062 216.475,166.928 217.300 M257.328 217.300 C 258.194 218.125,259.100 218.800,259.340 218.800 C 259.581 218.800,259.333 218.502,258.789 218.139 C 258.245 217.775,257.339 217.100,256.776 216.639 C 256.213 216.177,256.462 216.475,257.328 217.300 M210.263 219.300 C 210.364 219.465,212.226 219.600,214.400 219.600 C 216.574 219.600,218.436 219.465,218.539 219.300 C 218.641 219.135,216.779 219.000,214.401 219.000 C 212.023 219.000,210.161 219.135,210.263 219.300 " stroke="none" fill="#daccc2" fill-rule="evenodd"></path></g></svg>