<svg id="svg" version="1.1" xmlns="http://www.w3.org/2000/svg" xmlns:xlink="http://www.w3.org/1999/xlink" width="400" height="400" viewBox="0, 0, 400,400"><g id="svgg"><path id="path0" d="M34.946 81.268 C 33.817 81.814,33.536 82.391,31.083 89.195 L 28.994 94.990 26.809 95.304 C 21.967 96.001,20.357 102.400,25.024 102.400 L 26.350 102.400 24.745 106.900 C 21.961 114.711,21.556 116.149,21.549 118.244 C 21.530 124.469,27.419 128.376,34.800 127.034 C 35.790 126.854,36.918 126.540,37.307 126.336 C 37.797 126.078,38.285 126.154,38.896 126.582 C 40.802 127.918,45.493 126.280,44.896 124.487 C 44.806 124.219,44.958 124.000,45.233 124.000 C 45.508 124.000,45.620 123.886,45.481 123.747 C 45.342 123.608,45.446 123.113,45.712 122.647 C 45.978 122.181,46.214 121.620,46.236 121.400 C 46.257 121.180,46.488 120.480,46.748 119.845 C 47.009 119.210,47.271 118.400,47.330 118.045 C 47.390 117.690,47.686 116.950,47.987 116.400 C 48.289 115.850,48.503 115.354,48.463 115.298 C 48.423 115.242,48.663 114.545,48.995 113.749 C 49.328 112.953,49.600 111.964,49.600 111.551 C 49.600 111.138,49.750 110.800,49.933 110.800 C 50.117 110.800,50.267 110.574,50.267 110.298 C 50.267 107.586,53.179 102.958,55.282 102.328 C 58.389 101.397,58.419 102.065,55.635 110.298 C 52.967 118.187,52.739 119.944,54.017 122.762 C 56.502 128.239,66.191 128.891,70.846 123.894 C 71.470 123.225,72.800 123.298,72.800 124.001 C 72.800 124.586,77.781 126.686,80.200 127.121 C 84.212 127.842,90.555 126.963,93.032 125.342 C 93.489 125.042,93.984 124.918,94.132 125.065 C 94.279 125.213,94.400 125.145,94.400 124.915 C 94.400 124.685,94.947 124.271,95.615 123.994 C 96.284 123.717,97.010 123.155,97.229 122.745 C 97.449 122.335,97.922 122.000,98.281 122.000 C 98.640 122.000,98.834 121.901,98.713 121.780 C 98.592 121.658,99.120 120.893,99.888 120.080 C 103.654 116.087,105.036 110.274,102.465 109.240 C 100.192 108.325,97.862 109.229,96.829 111.428 C 94.521 116.337,90.560 119.507,85.852 120.213 C 81.237 120.905,77.716 118.930,78.125 115.879 C 78.394 113.877,78.485 113.816,80.020 114.610 C 86.543 117.983,95.133 112.349,95.471 104.476 C 95.995 92.268,77.851 91.289,73.400 103.285 C 69.533 113.704,68.108 116.840,66.627 118.191 C 63.830 120.742,61.314 120.978,61.767 118.647 C 61.901 117.961,62.098 116.870,62.206 116.223 C 62.314 115.575,62.627 114.903,62.901 114.729 C 63.176 114.555,63.243 114.409,63.051 114.406 C 62.859 114.403,62.911 114.148,63.166 113.841 C 63.421 113.533,63.697 112.932,63.780 112.505 C 64.113 110.772,64.987 108.148,65.502 107.332 C 69.046 101.717,64.166 94.148,57.510 94.936 C 55.744 95.145,55.557 95.096,55.809 94.486 C 56.135 93.697,56.811 91.285,56.954 90.400 C 57.007 90.070,57.370 89.135,57.761 88.322 C 58.508 86.764,58.892 83.542,58.371 83.196 C 58.202 83.084,58.005 82.726,57.932 82.401 C 57.786 81.746,55.919 80.800,54.773 80.800 C 52.089 80.800,51.420 81.944,47.181 93.800 C 45.371 98.860,43.362 104.440,42.714 106.200 C 42.067 107.960,41.353 110.030,41.127 110.800 C 40.902 111.570,40.593 112.380,40.442 112.600 C 40.291 112.820,39.927 113.720,39.634 114.600 C 38.324 118.536,33.687 121.145,30.774 119.586 C 29.933 119.136,29.664 116.655,30.407 116.196 C 30.630 116.058,30.713 115.783,30.591 115.586 C 30.469 115.389,30.729 114.523,31.168 113.662 C 31.607 112.801,32.047 111.670,32.144 111.149 C 32.241 110.627,32.718 109.210,33.203 108.000 C 33.688 106.790,34.128 105.620,34.182 105.400 C 34.235 105.180,34.396 104.685,34.540 104.300 C 34.683 103.915,34.884 103.330,34.987 103.000 C 35.125 102.561,35.773 102.400,37.407 102.400 C 43.564 102.400,45.450 96.138,39.529 95.353 C 37.373 95.067,37.315 94.984,38.293 93.589 C 38.674 93.045,38.965 92.510,38.941 92.400 C 38.916 92.290,39.070 91.750,39.283 91.200 C 39.497 90.650,39.732 89.897,39.808 89.526 C 39.883 89.155,40.143 88.480,40.386 88.026 C 40.629 87.572,40.711 87.200,40.568 87.200 C 40.425 87.200,40.599 86.756,40.954 86.214 C 43.016 83.067,38.651 79.474,34.946 81.268 M87.044 103.435 C 87.551 105.453,85.633 107.696,83.400 107.696 C 82.076 107.696,80.752 107.131,81.067 106.700 C 81.269 106.425,81.676 105.487,81.973 104.615 C 83.034 101.501,86.365 100.726,87.044 103.435 M42.333 158.596 C 42.260 158.667,41.660 158.821,41.000 158.939 C 31.705 160.596,21.992 167.637,20.223 174.000 C 18.808 179.096,18.567 180.493,18.650 183.138 C 18.700 184.753,18.834 186.168,18.947 186.281 C 19.239 186.572,23.200 184.732,23.200 184.305 C 23.200 184.111,23.338 184.038,23.508 184.143 C 23.677 184.247,24.532 183.994,25.408 183.580 C 26.283 183.166,27.133 182.821,27.295 182.814 C 28.246 182.770,29.120 181.463,28.568 180.910 C 28.255 180.598,28.000 179.805,28.000 179.148 C 28.000 178.298,27.855 178.040,27.500 178.253 C 27.160 178.457,27.176 178.337,27.549 177.877 C 27.851 177.505,27.941 177.200,27.749 177.200 C 27.350 177.199,27.271 174.404,27.653 173.800 C 27.792 173.580,28.030 172.820,28.182 172.110 C 28.659 169.886,33.355 165.565,36.316 164.627 C 37.119 164.372,37.207 164.450,37.035 165.268 C 36.928 165.781,36.556 167.550,36.209 169.200 C 35.862 170.850,34.952 175.440,34.187 179.400 C 33.423 183.360,32.631 187.230,32.428 188.000 C 32.016 189.559,31.134 193.764,30.958 195.000 C 30.896 195.440,30.284 198.500,29.600 201.800 C 28.915 205.100,28.274 208.338,28.174 208.995 C 28.075 209.653,27.905 210.508,27.797 210.895 C 27.689 211.283,27.496 211.965,27.369 212.412 C 27.145 213.202,27.278 213.221,32.438 213.112 L 37.738 213.000 38.272 210.647 C 38.565 209.353,38.879 207.733,38.968 207.047 C 39.057 206.361,39.228 205.530,39.346 205.200 C 39.682 204.263,40.098 201.495,40.051 200.500 C 40.028 200.005,40.176 199.600,40.380 199.600 C 40.583 199.600,40.762 199.285,40.777 198.900 C 40.837 197.290,41.023 196.172,41.304 195.736 C 41.468 195.481,41.500 195.004,41.374 194.677 C 41.248 194.349,41.341 193.960,41.579 193.813 C 41.818 193.665,41.909 193.376,41.781 193.170 C 41.526 192.757,41.620 192.721,44.800 192.007 C 47.317 191.441,50.015 190.246,51.900 188.860 C 52.615 188.335,53.200 188.010,53.200 188.139 C 53.200 188.268,53.703 187.884,54.317 187.287 C 54.931 186.689,55.981 185.742,56.649 185.183 C 58.039 184.020,61.200 179.428,61.200 178.572 C 61.200 178.257,61.410 178.000,61.667 178.000 C 61.923 178.000,62.020 177.886,61.881 177.747 C 61.742 177.608,61.826 177.126,62.067 176.674 C 62.566 175.743,62.895 170.075,62.489 169.426 C 62.342 169.192,62.172 168.775,62.111 168.500 C 61.899 167.548,61.661 166.599,61.583 166.400 C 61.540 166.290,61.523 166.076,61.545 165.924 C 61.783 164.256,54.908 159.398,51.676 158.949 C 49.859 158.697,42.516 158.419,42.333 158.596 M83.551 159.132 C 80.316 159.856,75.120 161.859,73.337 163.069 C 72.582 163.581,71.868 164.000,71.751 164.000 C 71.633 164.000,70.727 164.810,69.737 165.800 C 68.747 166.790,67.771 167.600,67.568 167.600 C 67.366 167.600,67.200 167.839,67.200 168.130 C 67.200 168.422,66.760 169.074,66.222 169.579 C 65.125 170.610,62.966 174.767,62.576 176.600 C 61.968 179.455,61.686 183.184,61.933 185.115 L 62.200 187.198 64.800 185.888 C 66.230 185.168,67.536 184.539,67.701 184.492 C 67.867 184.444,69.056 183.935,70.345 183.360 L 72.687 182.316 71.883 180.658 C 71.044 178.928,70.596 174.000,71.278 174.000 C 71.481 174.000,71.549 173.842,71.430 173.649 C 70.936 172.849,74.591 167.600,75.641 167.600 C 75.794 167.600,76.809 167.001,77.897 166.269 C 82.581 163.117,91.002 162.434,95.780 164.818 C 98.523 166.187,99.100 166.795,100.701 170.000 C 101.410 171.421,101.704 181.170,101.129 184.201 C 99.966 190.330,98.371 195.263,96.249 199.302 C 94.854 201.955,94.501 202.485,93.100 204.029 C 92.715 204.453,92.400 204.959,92.400 205.153 C 92.400 205.348,92.085 205.623,91.700 205.764 C 91.315 205.906,90.370 206.367,89.600 206.788 C 86.960 208.233,84.779 206.750,83.559 202.681 C 82.739 199.946,82.281 194.921,82.822 194.587 C 82.960 194.501,83.052 193.704,83.027 192.816 C 83.001 191.927,83.089 191.200,83.223 191.200 C 83.357 191.200,83.431 190.795,83.389 190.300 C 83.346 189.805,83.569 188.889,83.885 188.264 C 84.200 187.639,84.361 186.874,84.241 186.564 C 84.122 186.254,84.199 186.000,84.413 186.000 C 84.626 186.000,84.800 185.561,84.800 185.024 C 84.800 184.487,84.983 183.934,85.207 183.796 C 85.430 183.658,85.509 183.377,85.383 183.172 C 85.256 182.968,85.354 182.800,85.600 182.800 C 85.846 182.800,85.936 182.620,85.800 182.400 C 85.664 182.180,85.763 182.000,86.019 182.000 C 86.276 182.000,86.386 181.741,86.265 181.426 C 86.144 181.110,86.395 180.406,86.822 179.862 C 87.250 179.319,87.600 178.611,87.600 178.291 C 87.600 177.970,87.929 177.279,88.332 176.754 C 88.734 176.229,89.845 174.360,90.800 172.600 C 91.755 170.840,92.863 168.974,93.263 168.453 C 94.168 167.273,93.874 166.731,92.474 166.999 C 91.883 167.112,90.140 167.318,88.600 167.457 C 82.732 167.984,82.276 168.111,81.614 169.398 C 81.276 170.053,80.450 171.491,79.777 172.595 C 75.401 179.770,72.700 188.289,72.143 196.671 C 71.682 203.602,74.577 212.000,77.427 212.000 C 77.742 212.000,78.000 212.144,78.000 212.321 C 78.000 213.633,86.128 214.774,89.803 213.978 C 91.121 213.693,92.388 213.422,92.618 213.377 C 93.553 213.193,97.020 211.467,97.294 211.049 C 97.456 210.802,97.591 210.744,97.594 210.920 C 97.597 211.096,98.185 210.692,98.900 210.022 C 99.615 209.352,100.382 208.803,100.605 208.802 C 100.828 208.801,101.368 208.320,101.805 207.734 C 102.242 207.148,102.825 206.441,103.100 206.163 C 103.375 205.885,103.601 205.509,103.602 205.329 C 103.603 205.148,104.143 204.425,104.802 203.722 C 105.461 203.019,106.000 202.164,106.000 201.822 C 106.000 201.480,106.159 201.200,106.353 201.200 C 106.651 201.200,107.252 199.768,107.071 199.491 C 107.038 199.441,107.456 198.680,108.000 197.800 C 108.544 196.920,108.969 196.110,108.945 196.000 C 108.894 195.762,109.115 195.024,109.725 193.406 C 109.972 192.750,110.182 191.850,110.190 191.406 C 110.199 190.963,110.357 190.363,110.543 190.073 C 110.728 189.784,110.774 189.440,110.644 189.310 C 110.513 189.180,110.575 188.871,110.780 188.624 C 111.829 187.360,112.268 174.108,111.293 173.133 C 111.022 172.862,110.800 172.237,110.800 171.744 C 110.800 171.251,110.617 170.734,110.393 170.596 C 110.170 170.458,110.078 170.198,110.189 170.018 C 110.300 169.838,110.125 169.470,109.800 169.200 C 109.475 168.930,109.301 168.560,109.414 168.378 C 109.526 168.196,109.032 167.451,108.315 166.723 C 107.598 165.995,107.054 165.265,107.106 165.100 C 107.158 164.935,107.039 164.800,106.842 164.800 C 106.646 164.800,105.950 164.305,105.296 163.700 C 100.730 159.475,91.077 157.447,83.551 159.132 M142.000 158.681 C 138.299 159.101,128.000 163.025,128.000 164.015 C 128.000 164.227,127.775 164.400,127.500 164.400 C 126.223 164.401,121.237 170.055,119.739 173.200 C 117.608 177.676,117.037 180.986,117.548 185.900 C 117.623 186.622,118.626 186.516,120.321 185.606 C 121.134 185.169,122.790 184.365,124.000 183.820 C 127.686 182.159,127.799 182.004,127.024 179.671 C 125.285 174.437,128.091 169.264,134.343 166.172 C 137.543 164.590,137.298 164.299,136.387 168.607 C 135.970 170.583,134.453 178.140,133.018 185.400 C 131.582 192.660,129.884 201.210,129.243 204.400 C 128.602 207.590,127.962 210.875,127.821 211.700 L 127.564 213.200 136.298 213.200 C 151.067 213.200,159.143 209.153,162.839 199.900 C 163.081 199.295,163.441 198.800,163.639 198.800 C 163.838 198.800,163.972 198.665,163.937 198.500 C 163.903 198.335,164.372 197.120,164.980 195.800 C 165.587 194.480,166.164 192.967,166.261 192.438 C 166.358 191.909,166.591 191.189,166.778 190.838 C 167.453 189.569,168.411 183.202,168.478 179.542 C 168.544 175.900,168.418 174.792,167.634 172.100 C 167.426 171.385,167.361 170.800,167.490 170.800 C 167.619 170.800,167.470 170.485,167.159 170.100 C 166.848 169.715,166.251 168.725,165.834 167.900 C 165.416 167.075,164.917 166.400,164.724 166.400 C 164.532 166.400,164.256 166.085,164.110 165.700 C 163.793 164.864,162.987 164.000,162.524 164.000 C 162.342 164.000,161.723 163.565,161.150 163.034 C 157.599 159.741,149.295 157.854,142.000 158.681 M212.000 158.849 C 205.412 159.605,198.295 161.685,196.389 163.410 C 196.030 163.735,195.595 164.000,195.421 164.000 C 194.922 164.000,192.000 167.055,192.000 167.577 C 192.000 167.835,191.850 167.954,191.666 167.841 C 191.330 167.633,189.793 170.339,189.928 170.900 C 189.968 171.065,189.820 171.200,189.600 171.200 C 189.380 171.200,189.200 171.530,189.200 171.933 C 189.200 172.337,189.075 172.792,188.922 172.945 C 188.277 173.590,187.934 176.439,187.796 182.292 C 187.684 187.048,187.739 187.571,188.336 187.454 C 190.063 187.117,191.200 186.681,191.200 186.357 C 191.200 186.160,191.425 186.001,191.700 186.001 C 193.245 186.005,198.373 182.978,198.300 182.105 C 198.259 181.607,198.113 181.200,197.976 181.200 C 197.482 181.200,196.201 176.158,196.229 174.323 C 196.278 171.132,198.653 167.600,200.751 167.600 C 201.027 167.600,201.646 167.384,202.126 167.120 C 202.607 166.855,203.360 166.586,203.800 166.521 C 204.240 166.456,205.840 166.217,207.355 165.989 C 210.836 165.467,210.683 165.093,209.442 171.084 C 208.860 173.898,208.303 176.830,208.205 177.600 C 208.106 178.370,206.654 185.840,204.976 194.200 C 203.299 202.560,201.854 209.760,201.766 210.200 C 201.678 210.640,201.512 211.450,201.396 212.000 C 200.874 214.480,200.775 215.602,201.075 215.631 C 201.254 215.647,201.704 215.720,202.076 215.792 C 202.448 215.863,203.486 216.025,204.382 216.150 C 205.278 216.276,206.362 216.565,206.790 216.794 C 207.218 217.023,207.710 217.179,207.884 217.141 C 208.058 217.102,208.707 217.280,209.326 217.535 C 209.945 217.791,210.621 218.000,210.828 218.000 C 211.602 218.000,220.541 222.736,220.734 223.248 C 220.808 223.445,221.034 223.502,221.237 223.377 C 221.440 223.252,221.713 223.430,221.845 223.772 C 221.976 224.115,222.246 224.295,222.445 224.172 C 222.643 224.050,222.914 224.231,223.046 224.575 C 223.178 224.919,223.455 225.200,223.662 225.200 C 223.869 225.200,224.455 225.650,224.965 226.200 C 225.475 226.750,226.056 227.200,226.257 227.200 C 226.458 227.200,226.902 227.515,227.244 227.900 C 227.585 228.285,228.514 229.130,229.308 229.778 C 230.102 230.425,230.666 231.093,230.562 231.261 C 230.373 231.567,231.456 231.087,237.400 228.230 C 239.160 227.383,241.477 226.291,242.548 225.803 L 244.496 224.914 243.148 223.925 C 238.806 220.737,222.225 214.224,216.400 213.417 C 212.141 212.827,212.075 212.766,212.769 210.046 C 213.114 208.691,213.871 204.623,214.194 202.392 C 214.356 201.267,214.669 199.853,214.972 198.868 C 215.086 198.501,215.259 197.532,215.357 196.717 C 215.455 195.901,215.633 194.911,215.752 194.517 C 215.871 194.122,216.048 193.350,216.146 192.800 C 216.691 189.723,217.677 184.814,217.993 183.600 C 218.194 182.830,218.467 181.480,218.600 180.600 C 219.029 177.762,219.236 176.646,219.791 174.200 C 220.091 172.880,220.549 170.630,220.810 169.200 C 221.071 167.770,221.365 166.159,221.465 165.620 C 221.564 165.081,221.905 163.404,222.222 161.894 C 222.540 160.383,222.800 158.979,222.800 158.774 C 222.800 158.322,216.184 158.368,212.000 158.849 M251.556 158.577 C 251.459 158.674,250.484 158.788,249.390 158.830 C 248.295 158.872,246.590 159.062,245.600 159.253 C 244.610 159.443,243.440 159.662,243.000 159.739 C 242.560 159.817,241.930 159.983,241.600 160.109 C 241.270 160.235,240.010 160.649,238.800 161.029 C 235.323 162.120,229.600 165.832,229.600 166.995 C 229.600 167.146,229.077 168.019,228.437 168.935 C 227.297 170.568,227.066 171.160,225.833 175.600 C 225.164 178.012,225.230 185.390,225.927 186.087 C 226.176 186.336,226.865 186.188,227.857 185.673 C 230.867 184.111,234.654 182.400,235.100 182.400 C 235.952 182.400,236.015 181.652,235.276 180.326 C 233.052 176.337,233.399 168.290,235.800 168.182 C 236.020 168.172,236.920 167.789,237.800 167.331 C 239.487 166.454,242.657 165.628,245.500 165.327 L 247.199 165.147 247.027 166.474 C 246.932 167.203,246.828 167.800,246.796 167.800 C 246.691 167.800,246.398 169.387,246.298 170.499 C 246.244 171.104,246.090 171.599,245.955 171.599 C 245.821 171.600,245.523 172.635,245.294 173.900 C 245.064 175.165,244.771 176.650,244.642 177.200 C 244.512 177.750,244.309 178.650,244.190 179.200 C 243.837 180.826,243.283 183.327,243.038 184.400 C 240.882 193.842,240.279 202.818,241.601 205.800 C 241.894 206.460,242.151 207.090,242.174 207.200 C 242.275 207.700,244.401 210.542,244.413 210.193 C 244.420 209.977,244.645 210.070,244.913 210.400 C 247.517 213.606,256.144 213.973,260.122 211.047 C 263.470 208.584,264.521 208.338,263.665 210.217 C 263.409 210.778,263.200 211.679,263.200 212.219 L 263.200 213.200 268.324 213.200 L 273.448 213.200 274.344 208.500 C 274.837 205.915,275.403 203.260,275.602 202.600 C 275.801 201.940,276.166 200.230,276.412 198.800 C 276.987 195.466,277.108 194.817,277.383 193.600 C 277.507 193.050,277.702 192.060,277.817 191.400 C 278.158 189.442,279.968 180.405,280.582 177.600 C 280.894 176.170,281.521 173.110,281.975 170.800 C 282.693 167.142,283.077 165.233,283.785 161.800 C 283.876 161.360,284.044 160.410,284.158 159.689 L 284.365 158.377 279.099 158.489 L 273.832 158.600 272.890 163.400 C 272.371 166.040,271.898 168.650,271.838 169.200 C 271.778 169.750,271.624 170.470,271.494 170.800 C 271.365 171.130,271.159 172.030,271.036 172.800 C 270.560 175.782,270.429 176.429,270.239 176.737 C 270.131 176.912,269.923 177.943,269.778 179.028 C 269.633 180.113,269.427 181.145,269.320 181.322 C 269.156 181.593,268.307 185.756,267.835 188.600 C 267.762 189.040,267.661 189.400,267.611 189.400 C 267.561 189.400,267.475 189.850,267.419 190.400 C 267.106 193.469,266.278 195.993,265.183 197.220 C 264.532 197.948,264.000 198.671,264.000 198.825 C 264.000 198.980,262.466 200.221,260.592 201.583 C 252.605 207.386,249.843 204.446,252.150 192.600 C 252.236 192.160,252.438 190.990,252.600 190.000 C 252.762 189.010,253.420 185.770,254.064 182.800 C 254.707 179.830,255.584 175.600,256.012 173.400 C 256.440 171.200,257.251 167.420,257.813 165.000 C 258.375 162.580,258.938 160.105,259.063 159.500 L 259.291 158.400 255.512 158.400 C 253.434 158.400,251.654 158.480,251.556 158.577 M307.400 158.784 C 306.520 158.976,305.260 159.356,304.600 159.628 C 303.940 159.900,303.098 160.182,302.729 160.254 C 302.361 160.327,301.138 160.929,300.012 161.593 C 298.886 162.257,297.876 162.800,297.768 162.800 C 297.515 162.800,295.880 164.277,294.489 165.764 C 293.890 166.404,292.725 167.649,291.900 168.529 C 291.075 169.410,290.400 170.331,290.400 170.577 C 290.400 170.822,290.050 171.276,289.621 171.585 C 289.193 171.893,288.921 172.272,289.016 172.426 C 289.111 172.580,288.818 173.177,288.366 173.753 C 287.913 174.329,287.673 174.800,287.833 174.800 C 287.993 174.800,287.839 175.115,287.490 175.500 C 287.142 175.885,286.857 176.290,286.857 176.400 C 286.856 176.510,286.650 177.140,286.398 177.800 C 286.146 178.460,285.915 179.315,285.884 179.700 C 285.854 180.085,285.708 180.400,285.560 180.400 C 285.412 180.400,285.151 181.255,284.980 182.300 C 284.809 183.345,284.625 184.380,284.571 184.600 C 283.026 190.918,283.672 200.022,285.912 203.500 C 286.231 203.995,286.381 204.400,286.246 204.400 C 285.810 204.400,290.307 209.190,291.692 210.200 C 300.819 216.858,318.849 215.143,326.990 206.843 C 329.773 204.006,331.473 201.220,330.715 200.739 C 329.710 200.102,327.200 200.473,327.200 201.258 C 327.200 202.060,323.204 205.506,320.917 206.676 C 317.156 208.601,310.242 209.155,306.491 207.832 C 305.561 207.504,304.800 207.323,304.800 207.430 C 304.800 207.537,303.765 206.968,302.500 206.166 C 295.307 201.606,293.639 195.372,296.569 184.000 C 297.356 180.944,302.400 171.084,302.400 172.600 C 302.400 172.772,302.990 172.167,303.710 171.257 C 304.431 170.346,305.466 169.303,306.010 168.939 C 306.555 168.575,307.620 167.818,308.378 167.258 C 309.136 166.698,310.036 166.187,310.378 166.123 C 314.704 165.309,315.670 165.497,316.535 167.319 C 317.108 168.527,317.058 170.270,316.435 170.800 C 315.830 171.315,314.467 174.615,314.811 174.733 C 315.025 174.807,315.200 175.122,315.200 175.433 C 315.200 175.745,315.380 176.000,315.600 176.000 C 315.820 176.000,316.000 176.159,316.000 176.354 C 316.000 176.549,316.720 177.787,317.600 179.105 C 318.480 180.423,319.200 181.703,319.200 181.950 C 319.200 182.198,319.380 182.400,319.600 182.400 C 319.820 182.400,320.000 182.670,320.000 183.000 C 320.000 184.619,321.260 183.224,322.799 179.900 C 324.747 175.693,325.353 168.835,324.013 166.168 C 322.862 163.879,321.160 161.749,319.890 161.010 C 319.180 160.598,318.510 160.157,318.400 160.030 C 317.433 158.917,310.426 158.124,307.400 158.784 M351.567 158.565 C 351.475 158.656,350.050 158.849,348.400 158.994 C 345.623 159.239,342.115 159.999,340.200 160.772 C 336.769 162.158,334.832 163.163,333.710 164.141 C 332.989 164.769,332.399 165.129,332.399 164.941 C 332.398 164.754,332.035 165.194,331.592 165.920 C 331.150 166.646,330.613 167.131,330.398 166.999 C 330.179 166.863,330.113 167.029,330.247 167.379 C 330.391 167.753,330.269 168.000,329.940 168.000 C 329.178 168.000,327.458 172.335,326.925 175.600 C 326.547 177.911,326.455 185.200,326.803 185.200 C 327.007 185.200,327.071 185.470,326.945 185.800 C 326.635 186.607,326.735 186.585,329.872 185.166 C 335.414 182.660,336.817 181.829,336.564 181.200 C 336.431 180.870,336.278 180.420,336.223 180.200 C 336.168 179.980,335.895 179.260,335.616 178.600 C 334.000 174.773,334.789 170.164,337.402 168.171 C 340.373 165.905,348.937 164.284,348.582 166.055 C 348.477 166.575,348.287 167.540,348.159 168.200 C 347.862 169.734,347.681 170.548,347.583 170.800 C 347.540 170.910,347.536 171.162,347.573 171.360 C 347.610 171.558,347.516 172.008,347.364 172.360 C 347.213 172.712,347.039 173.270,346.978 173.600 C 346.805 174.538,346.409 176.483,346.124 177.800 C 345.676 179.871,345.582 180.567,345.597 181.700 C 345.606 182.305,345.455 182.800,345.262 182.800 C 345.069 182.800,344.997 183.250,345.102 183.800 C 345.207 184.350,345.137 184.801,344.947 184.802 C 344.756 184.804,344.573 185.527,344.539 186.411 C 344.506 187.295,344.342 188.329,344.174 188.709 C 344.006 189.089,343.831 189.535,343.785 189.700 C 343.738 189.865,343.658 190.135,343.606 190.300 C 343.554 190.465,343.544 191.005,343.584 191.500 C 343.624 191.995,343.481 192.400,343.266 192.400 C 343.051 192.400,342.968 192.757,343.083 193.194 C 343.197 193.631,343.155 194.306,342.990 194.694 C 342.666 195.455,342.410 196.638,342.363 197.600 C 342.346 197.930,342.233 198.470,342.111 198.800 C 341.989 199.130,341.846 199.670,341.794 200.000 C 341.703 200.567,341.473 201.731,341.000 204.000 C 340.565 206.088,340.313 207.427,340.209 208.200 C 340.150 208.640,340.057 209.045,340.001 209.100 C 339.945 209.155,339.855 209.560,339.800 210.000 C 339.745 210.440,339.663 210.845,339.617 210.900 C 339.572 210.955,339.453 211.495,339.353 212.100 L 339.173 213.200 344.304 213.200 L 349.436 213.200 350.122 209.900 C 350.499 208.085,350.888 206.150,350.986 205.600 C 351.979 200.033,353.440 193.701,353.695 193.859 C 353.870 193.967,353.909 194.223,353.783 194.428 C 353.656 194.632,353.743 194.800,353.976 194.800 C 354.209 194.800,354.400 195.070,354.400 195.400 C 354.400 195.730,354.537 196.000,354.704 196.000 C 354.871 196.000,355.244 196.379,355.533 196.842 C 355.969 197.539,355.968 197.630,355.530 197.373 C 355.238 197.202,355.495 197.567,356.100 198.185 C 356.705 198.803,357.200 199.545,357.200 199.834 C 357.200 200.123,357.647 200.841,358.193 201.430 C 358.738 202.019,359.088 202.658,358.969 202.850 C 358.850 203.043,358.948 203.200,359.186 203.200 C 359.425 203.200,359.798 203.605,360.015 204.100 C 360.232 204.595,361.551 206.800,362.945 209.000 L 365.480 213.000 371.340 213.111 C 377.496 213.227,378.161 213.018,376.600 211.457 C 376.270 211.127,376.000 210.737,376.000 210.590 C 376.000 210.443,375.036 208.856,373.858 207.062 C 372.680 205.268,370.513 201.820,369.042 199.400 C 367.572 196.980,365.302 193.290,363.998 191.200 C 362.694 189.110,361.621 187.258,361.614 187.084 C 361.606 186.910,361.208 186.237,360.728 185.589 C 360.249 184.940,359.934 184.327,360.028 184.226 C 363.329 180.685,378.610 164.844,382.818 160.600 C 384.985 158.414,384.968 158.400,380.070 158.400 L 375.741 158.400 374.170 160.066 C 373.307 160.982,370.592 163.781,368.138 166.287 C 365.684 168.792,363.081 171.542,362.353 172.397 C 361.626 173.252,360.690 174.040,360.275 174.149 C 359.859 174.257,359.620 174.508,359.742 174.706 C 359.864 174.904,359.252 175.720,358.382 176.520 C 357.512 177.321,356.800 178.191,356.800 178.454 C 356.800 178.718,356.709 178.842,356.597 178.730 C 356.485 178.619,356.947 175.844,357.622 172.564 C 358.298 169.284,359.115 165.070,359.438 163.200 C 359.761 161.330,360.121 159.485,360.239 159.100 C 360.440 158.447,352.198 157.939,351.567 158.565 M50.000 163.324 C 50.000 162.312,53.582 166.895,53.832 168.228 C 54.487 171.711,52.471 178.279,49.545 182.200 C 47.377 185.105,42.223 188.808,42.997 186.905 C 43.155 186.517,43.342 185.570,43.412 184.800 C 43.545 183.342,43.577 183.179,44.606 178.600 C 45.239 175.785,45.594 173.598,45.630 172.300 C 45.641 171.915,45.808 171.600,46.002 171.600 C 46.196 171.600,46.287 171.254,46.206 170.831 C 46.124 170.408,46.324 169.013,46.648 167.731 C 46.973 166.449,47.303 165.005,47.382 164.523 C 47.621 163.056,47.941 162.797,49.014 163.205 C 49.556 163.412,50.000 163.465,50.000 163.324 M152.000 164.470 C 153.967 165.315,156.000 167.045,156.000 167.875 C 156.000 168.164,156.159 168.400,156.353 168.400 C 156.548 168.400,156.836 168.805,156.994 169.300 C 157.153 169.795,157.347 170.380,157.425 170.600 C 157.994 172.190,158.279 174.212,158.166 175.862 C 157.761 181.792,157.490 183.900,156.773 186.702 C 156.337 188.406,155.909 190.160,155.822 190.600 C 155.534 192.051,154.514 194.593,153.652 196.007 C 153.185 196.773,152.792 197.670,152.778 198.000 C 152.765 198.330,152.310 199.230,151.767 200.000 C 151.224 200.770,150.407 201.985,149.951 202.700 C 149.494 203.415,148.935 204.000,148.707 204.000 C 148.480 204.000,147.943 204.405,147.513 204.900 C 147.084 205.395,146.613 205.815,146.466 205.834 C 146.320 205.853,145.408 206.241,144.441 206.696 C 142.889 207.427,140.267 207.600,139.678 207.011 C 139.589 206.923,139.840 205.084,140.234 202.925 C 140.629 200.766,140.956 198.685,140.961 198.300 C 140.967 197.915,141.080 197.600,141.213 197.600 C 141.346 197.600,141.469 197.105,141.487 196.500 C 141.505 195.895,141.707 194.860,141.936 194.200 C 142.166 193.540,142.643 191.380,142.997 189.400 C 143.351 187.420,144.095 183.460,144.650 180.600 C 145.205 177.740,145.720 175.040,145.795 174.600 C 146.000 173.391,146.365 171.519,146.615 170.400 C 146.738 169.850,146.912 168.860,147.002 168.200 C 147.712 163.018,148.044 162.771,152.000 164.470 M22.000 238.701 C 17.891 238.840,17.229 239.024,17.474 239.960 C 17.869 241.472,15.111 241.421,138.000 242.196 C 148.230 242.260,169.380 242.424,185.000 242.560 C 251.926 243.142,270.229 243.212,270.710 242.886 C 270.991 242.696,271.295 241.949,271.386 241.227 C 271.478 240.505,271.445 240.022,271.313 240.154 C 271.181 240.285,270.877 240.238,270.637 240.049 C 270.397 239.859,248.330 239.577,221.600 239.421 C 194.870 239.265,161.030 239.050,146.400 238.942 C 116.370 238.720,26.586 238.547,22.000 238.701 M295.200 249.915 C 294.650 249.980,293.840 250.194,293.400 250.390 C 292.960 250.586,291.946 251.038,291.148 251.396 C 288.138 252.743,285.090 256.522,283.825 260.475 C 283.521 261.424,282.916 263.134,282.479 264.276 C 282.043 265.418,281.775 266.442,281.884 266.551 C 281.993 266.659,281.793 267.160,281.441 267.663 C 281.088 268.166,280.800 268.864,280.800 269.214 C 280.800 269.564,280.438 270.598,279.996 271.513 C 279.554 272.428,279.223 273.317,279.260 273.489 C 279.337 273.848,278.839 275.255,277.591 278.200 C 277.065 279.441,276.824 280.537,276.624 282.600 C 276.559 283.260,276.468 283.800,276.420 283.800 C 276.134 283.800,276.160 285.914,276.453 286.479 C 276.647 286.852,276.843 287.617,276.890 288.179 C 276.936 288.740,277.115 289.200,277.287 289.200 C 277.459 289.200,277.579 289.335,277.553 289.500 C 277.181 291.853,282.932 296.252,287.886 297.404 C 292.769 298.539,299.259 297.601,303.528 295.144 L 305.139 294.217 306.130 295.287 C 308.439 297.778,314.365 298.423,318.298 296.611 L 320.200 295.734 322.389 296.867 C 326.076 298.776,330.003 298.269,333.766 295.399 C 335.119 294.366,335.130 294.365,335.696 295.173 C 337.836 298.228,345.177 298.769,349.028 296.155 C 350.364 295.248,350.673 295.180,351.383 295.631 C 357.080 299.259,364.303 298.558,368.133 294.006 C 368.720 293.309,369.200 292.572,369.200 292.369 C 369.200 292.166,370.152 292.000,371.316 292.000 C 377.456 292.000,383.893 287.756,384.967 283.000 C 385.116 282.340,385.320 281.520,385.421 281.178 C 385.522 280.835,385.043 279.982,384.355 279.278 C 382.162 277.035,380.066 277.688,378.000 281.258 C 376.543 283.776,375.878 284.331,373.744 284.813 L 372.468 285.100 372.981 283.450 C 373.262 282.543,373.765 281.080,374.099 280.200 C 376.076 274.975,376.081 271.126,374.114 268.492 C 373.501 267.671,372.862 266.939,372.693 266.864 C 372.524 266.790,372.119 266.462,371.793 266.136 C 371.467 265.810,371.197 265.691,371.194 265.871 C 371.191 266.052,371.056 266.004,370.894 265.766 C 370.423 265.070,368.354 264.543,366.300 264.595 C 365.255 264.621,364.400 264.618,364.400 264.589 C 364.400 264.559,365.120 262.516,366.000 260.049 C 368.287 253.637,367.530 250.779,363.600 250.990 C 362.251 251.063,360.407 251.687,360.603 252.005 C 360.719 252.192,360.495 252.583,360.107 252.873 C 359.718 253.163,359.345 253.760,359.279 254.200 C 359.038 255.786,357.885 259.014,357.332 259.650 C 357.021 260.007,356.812 260.457,356.868 260.650 C 357.001 261.114,355.568 265.695,355.137 266.180 C 354.952 266.389,354.800 266.985,354.800 267.504 C 354.800 268.023,354.665 268.364,354.500 268.263 C 354.335 268.161,354.160 268.627,354.112 269.297 C 354.063 269.968,353.577 271.369,353.032 272.412 C 352.487 273.454,352.152 274.418,352.287 274.554 C 352.422 274.689,352.368 274.800,352.167 274.801 C 351.965 274.801,351.755 275.438,351.699 276.216 C 351.643 276.995,351.350 278.029,351.047 278.516 C 350.528 279.348,349.936 281.286,350.027 281.853 C 350.050 281.995,349.859 282.240,349.604 282.398 C 349.348 282.556,349.040 283.427,348.918 284.334 C 348.796 285.241,348.573 285.907,348.421 285.813 C 348.269 285.719,348.226 286.198,348.326 286.878 C 348.432 287.601,348.350 288.016,348.127 287.879 C 347.918 287.749,347.434 288.174,347.051 288.822 C 346.668 289.470,346.172 290.000,345.949 290.000 C 345.726 290.000,345.302 290.241,345.007 290.536 C 344.007 291.536,341.889 290.884,342.122 289.649 C 342.589 287.165,343.951 282.821,344.476 282.141 C 344.671 281.888,344.902 281.348,344.991 280.941 C 345.173 280.102,346.649 275.814,347.174 274.600 C 349.651 268.871,348.642 265.349,344.549 265.439 C 342.919 265.474,340.694 266.764,340.900 267.553 C 340.935 267.689,340.657 268.376,340.282 269.080 C 339.907 269.784,339.600 270.719,339.600 271.157 C 339.600 271.594,339.436 272.054,339.235 272.178 C 339.034 272.303,338.748 273.123,338.600 274.002 C 338.451 274.881,338.155 275.600,337.941 275.600 C 337.728 275.600,337.655 275.765,337.779 275.966 C 337.903 276.167,337.825 276.392,337.606 276.466 C 337.386 276.540,337.166 277.095,337.116 277.700 C 337.066 278.305,336.885 278.800,336.713 278.800 C 336.541 278.800,336.400 279.214,336.400 279.720 C 336.400 280.226,336.231 280.811,336.025 281.020 C 335.818 281.229,335.589 281.850,335.515 282.400 C 335.440 282.950,335.239 283.625,335.066 283.900 C 334.894 284.175,334.866 284.400,335.005 284.400 C 335.144 284.400,334.974 284.683,334.629 285.029 C 334.283 285.374,334.000 285.880,334.000 286.151 C 334.000 286.884,331.971 289.200,331.329 289.200 C 331.024 289.200,330.671 289.470,330.545 289.800 C 330.418 290.130,330.064 290.400,329.757 290.400 C 329.451 290.400,329.200 290.555,329.200 290.745 C 329.200 290.934,328.750 291.003,328.200 290.898 C 326.761 290.623,327.121 288.282,329.417 283.000 C 329.704 282.340,330.068 281.260,330.227 280.600 C 330.385 279.940,330.833 278.680,331.222 277.800 C 334.314 270.802,334.594 266.260,331.959 265.862 C 331.652 265.816,331.203 265.654,330.962 265.504 C 330.413 265.160,327.552 265.599,327.794 265.991 C 327.892 266.150,327.537 266.512,327.005 266.797 C 325.989 267.341,325.196 268.994,324.998 270.987 C 324.933 271.639,324.682 272.239,324.440 272.320 C 324.198 272.401,324.000 272.724,324.000 273.039 C 324.000 273.353,323.844 273.923,323.654 274.305 C 323.233 275.149,322.413 277.525,322.192 278.541 C 322.103 278.948,321.828 279.525,321.581 279.823 C 321.333 280.121,321.247 280.553,321.389 280.782 C 321.531 281.012,321.479 281.200,321.274 281.200 C 320.961 281.200,320.517 282.432,320.193 284.200 C 319.466 288.166,314.429 292.201,312.550 290.322 C 311.918 289.690,311.796 290.099,317.126 275.000 C 320.230 266.207,320.215 266.251,321.221 263.200 C 321.692 261.770,322.226 260.240,322.407 259.800 C 324.492 254.733,323.722 251.200,320.533 251.200 C 317.529 251.200,314.898 254.010,314.167 258.000 C 314.066 258.550,313.816 259.360,313.612 259.800 C 313.020 261.075,312.000 264.373,312.000 265.014 C 312.000 265.336,311.812 265.600,311.582 265.600 C 311.353 265.600,311.202 265.825,311.247 266.100 C 311.292 266.375,311.119 267.107,310.864 267.726 C 310.609 268.345,310.400 269.080,310.400 269.359 C 310.400 269.638,310.265 270.002,310.100 270.167 C 309.935 270.332,309.784 270.587,309.765 270.733 C 309.746 270.880,309.595 271.360,309.428 271.800 C 309.261 272.240,308.921 273.140,308.671 273.800 C 308.422 274.460,308.213 275.180,308.207 275.400 C 308.201 275.620,307.964 276.209,307.680 276.708 C 307.395 277.208,307.289 277.821,307.443 278.070 C 307.628 278.369,307.543 278.412,307.194 278.196 C 306.808 277.958,306.734 278.051,306.921 278.539 C 307.071 278.929,306.747 279.982,306.150 281.053 C 305.584 282.067,305.316 282.776,305.555 282.628 C 305.856 282.442,305.880 282.642,305.633 283.280 C 305.437 283.786,305.066 284.151,304.809 284.090 C 304.551 284.030,304.455 284.166,304.596 284.393 C 305.002 285.051,301.266 288.345,298.828 289.478 C 296.238 290.681,292.351 290.833,290.304 289.812 C 289.629 289.475,288.936 289.200,288.763 289.200 C 288.591 289.200,287.853 288.656,287.125 287.990 C 284.858 285.920,285.831 280.666,290.676 268.800 C 290.811 268.470,290.976 268.020,291.044 267.800 C 291.857 265.165,293.418 261.350,293.940 260.727 C 296.361 257.831,299.945 258.498,299.220 261.710 C 299.036 262.529,298.977 263.200,299.091 263.200 C 299.205 263.200,299.112 263.425,298.884 263.700 C 298.436 264.242,298.427 266.399,298.873 266.400 C 299.023 266.400,299.261 266.763,299.402 267.206 C 299.543 267.649,299.825 267.908,300.029 267.782 C 300.233 267.656,300.400 267.723,300.400 267.931 C 300.400 268.678,302.988 268.723,304.650 268.003 C 308.537 266.321,309.785 258.416,306.815 254.281 C 304.640 251.252,299.676 249.386,295.200 249.915 M53.012 264.780 C 52.865 265.018,52.582 265.113,52.384 264.990 C 52.175 264.861,52.023 267.638,52.022 271.584 C 52.020 278.190,52.045 278.400,52.840 278.400 C 53.496 278.400,53.637 278.180,53.545 277.300 C 53.481 276.695,53.537 276.020,53.669 275.800 C 53.956 275.321,53.789 264.855,53.489 264.556 C 53.374 264.441,53.160 264.542,53.012 264.780 M26.851 265.309 C 26.555 265.605,26.400 267.915,26.400 272.040 L 26.400 278.319 28.235 278.465 C 29.244 278.546,30.136 278.504,30.217 278.372 C 30.298 278.241,30.913 278.214,31.582 278.312 C 32.349 278.425,32.800 278.317,32.800 278.022 C 32.800 277.764,32.946 277.643,33.125 277.754 C 33.655 278.081,35.401 276.306,35.998 274.833 C 36.615 273.312,36.792 270.000,36.257 270.000 C 36.068 270.000,36.037 269.505,36.189 268.901 C 36.341 268.296,36.333 267.934,36.171 268.095 C 36.010 268.257,35.448 267.807,34.922 267.095 C 34.397 266.383,33.912 265.890,33.845 266.000 C 33.778 266.110,33.470 265.996,33.161 265.747 C 32.853 265.497,31.790 265.332,30.800 265.379 C 29.810 265.426,28.618 265.328,28.151 265.161 C 27.650 264.983,27.117 265.043,26.851 265.309 M48.425 265.370 C 47.768 266.162,48.042 266.896,49.053 267.051 C 49.651 267.142,49.849 266.966,49.806 266.381 C 49.716 265.166,49.018 264.655,48.425 265.370 M100.068 267.801 C 100.141 269.451,100.065 270.801,99.900 270.801 C 99.735 270.800,99.600 270.446,99.600 270.013 C 99.600 269.522,99.400 269.302,99.069 269.429 C 98.777 269.541,98.057 269.450,97.469 269.226 C 96.881 269.003,96.400 268.978,96.400 269.172 C 96.400 269.366,96.032 269.429,95.583 269.311 C 95.134 269.194,94.819 269.256,94.883 269.449 C 94.947 269.642,94.820 269.856,94.600 269.924 C 93.703 270.202,93.138 272.649,93.426 275.012 C 93.830 278.329,97.450 280.429,99.181 278.351 C 99.789 277.621,99.976 277.550,99.987 278.045 C 99.995 278.445,100.320 278.674,100.841 278.645 C 101.682 278.600,102.447 267.700,101.764 265.500 C 101.070 263.266,99.937 264.804,100.068 267.801 M74.061 265.726 C 73.200 266.764,73.487 278.800,74.372 278.800 C 75.122 278.800,75.777 276.768,75.733 274.575 C 75.723 274.078,75.972 273.748,76.358 273.746 C 78.566 273.735,80.100 273.566,79.891 273.358 C 79.758 273.225,80.133 272.668,80.725 272.119 C 81.316 271.571,81.800 270.975,81.800 270.795 C 81.800 270.614,81.919 270.348,82.063 270.203 C 82.208 270.058,82.180 269.427,82.000 268.800 C 81.820 268.173,81.762 267.571,81.871 267.462 C 82.394 266.939,79.772 265.905,77.597 265.776 C 76.266 265.698,75.023 265.538,74.834 265.421 C 74.645 265.304,74.297 265.442,74.061 265.726 M147.538 265.492 C 146.957 265.626,146.872 266.447,146.841 272.222 L 146.805 278.800 147.803 278.800 C 148.755 278.800,148.800 278.692,148.800 276.400 C 148.800 274.776,148.962 273.982,149.300 273.946 C 149.575 273.916,150.518 273.831,151.396 273.758 C 152.274 273.684,153.054 273.439,153.129 273.212 C 153.205 272.985,153.477 272.798,153.733 272.795 C 153.990 272.793,154.521 272.118,154.913 271.295 C 156.429 268.114,154.513 265.506,150.772 265.661 C 149.767 265.702,148.777 265.647,148.572 265.539 C 148.367 265.430,147.902 265.409,147.538 265.492 M32.075 267.240 C 32.672 267.560,32.822 267.560,32.625 267.240 C 32.475 266.998,32.500 266.800,32.680 266.800 C 32.860 266.800,33.244 267.179,33.533 267.642 C 33.969 268.339,33.968 268.430,33.530 268.173 C 33.238 268.002,33.324 268.232,33.719 268.684 C 35.026 270.177,34.517 276.614,33.159 275.774 C 32.988 275.669,32.703 275.812,32.525 276.092 C 32.220 276.569,28.447 276.849,28.362 276.400 C 28.341 276.290,28.296 274.085,28.262 271.500 L 28.200 266.800 29.726 266.800 C 30.566 266.800,31.622 266.998,32.075 267.240 M132.000 268.224 C 132.000 269.007,131.856 269.558,131.681 269.450 C 131.169 269.134,130.271 269.867,130.572 270.355 C 130.724 270.600,131.184 270.800,131.596 270.800 C 132.274 270.800,132.331 271.082,132.199 273.773 C 132.090 275.996,132.196 276.865,132.622 277.218 C 132.935 277.478,133.104 277.831,132.998 278.003 C 132.486 278.831,136.186 279.340,136.855 278.534 C 137.463 277.801,136.960 277.280,135.849 277.493 C 134.637 277.724,134.254 276.747,134.285 273.505 C 134.300 272.014,134.162 271.300,133.892 271.467 C 133.651 271.616,133.596 271.530,133.762 271.262 C 133.919 271.008,134.656 270.800,135.400 270.800 C 136.882 270.800,137.621 270.118,136.751 269.553 C 136.448 269.356,135.750 269.241,135.200 269.297 C 134.427 269.377,134.190 269.208,134.157 268.554 C 134.043 266.293,132.000 265.980,132.000 268.224 M78.800 267.647 C 78.800 267.841,79.049 268.000,79.353 268.000 C 80.225 268.000,80.378 269.442,79.658 270.877 C 78.844 272.500,76.478 272.984,76.117 271.603 C 76.002 271.166,75.730 270.920,75.512 271.055 C 75.280 271.198,75.200 270.988,75.320 270.550 C 75.961 268.214,76.018 267.541,75.554 267.828 C 75.262 268.009,75.181 267.954,75.346 267.687 C 75.666 267.170,78.800 267.134,78.800 267.647 M152.687 267.967 C 154.171 269.894,152.855 272.112,150.157 272.234 L 148.913 272.291 148.843 269.748 L 148.773 267.205 150.487 267.269 C 151.513 267.308,152.395 267.588,152.687 267.967 M173.742 267.806 C 173.614 268.139,173.607 268.783,173.726 269.238 C 173.879 269.822,173.783 270.002,173.400 269.855 C 172.369 269.460,171.917 270.634,172.924 271.093 C 173.759 271.473,173.835 271.751,173.773 274.185 C 173.696 277.157,174.200 278.672,175.395 279.058 C 176.825 279.519,178.377 279.510,178.769 279.037 C 179.305 278.391,178.622 277.429,177.840 277.729 C 176.631 278.193,176.000 277.586,176.000 275.957 C 176.000 275.101,175.809 274.400,175.576 274.400 C 175.335 274.400,175.289 274.185,175.470 273.900 C 175.828 273.337,175.879 273.133,175.950 272.000 C 175.988 271.397,176.283 271.200,177.153 271.200 C 177.964 271.200,178.368 270.966,178.512 270.414 C 178.625 269.981,178.601 269.643,178.459 269.661 C 177.036 269.846,176.000 269.517,176.000 268.880 C 176.000 267.440,174.210 266.588,173.742 267.806 M40.647 268.877 C 40.798 269.120,40.681 269.227,40.375 269.125 C 39.654 268.885,38.400 270.005,38.400 270.889 C 38.400 271.385,38.709 271.600,39.424 271.600 C 39.987 271.600,40.342 271.429,40.212 271.220 C 39.897 270.709,41.351 269.967,42.366 270.122 C 44.155 270.395,44.517 272.400,42.777 272.400 C 42.130 272.400,41.600 272.599,41.600 272.843 C 41.600 273.086,41.323 273.179,40.985 273.050 C 40.641 272.918,40.273 273.064,40.152 273.381 C 40.027 273.707,39.663 273.846,39.301 273.707 C 38.883 273.546,38.767 273.622,38.958 273.932 C 39.117 274.189,39.060 274.400,38.831 274.400 C 37.925 274.400,37.914 276.356,38.814 277.620 C 39.545 278.646,39.896 278.829,40.753 278.629 C 42.452 278.234,42.575 278.193,43.145 277.838 C 43.469 277.635,43.798 277.674,43.959 277.934 C 44.532 278.861,46.014 277.979,45.773 276.854 C 45.506 275.605,45.560 270.788,45.847 270.324 C 45.957 270.146,45.786 270.000,45.466 270.000 C 45.147 270.000,44.778 269.719,44.646 269.375 C 44.514 269.031,44.224 268.861,44.003 268.998 C 43.781 269.135,43.600 269.078,43.600 268.871 C 43.600 268.664,42.876 268.484,41.992 268.472 C 40.949 268.458,40.476 268.600,40.647 268.877 M48.030 273.606 C 48.020 278.091,48.069 278.400,48.797 278.400 C 49.324 278.400,49.501 278.207,49.345 277.800 C 49.218 277.470,49.269 277.200,49.457 277.200 C 50.346 277.200,49.800 269.080,48.902 268.943 C 48.060 268.814,48.040 268.924,48.030 273.606 M55.722 269.460 C 55.585 269.815,55.682 270.440,55.937 270.848 C 56.192 271.255,56.400 271.862,56.400 272.195 C 56.400 272.528,56.580 272.800,56.800 272.800 C 57.020 272.800,57.200 273.080,57.200 273.422 C 57.200 273.764,57.574 274.865,58.032 275.869 C 59.207 278.449,57.308 281.948,55.639 280.279 C 55.320 279.960,55.200 280.125,55.200 280.880 C 55.200 281.801,55.359 281.920,56.597 281.920 C 57.902 281.920,60.083 280.706,59.907 280.077 C 59.865 279.925,60.055 279.395,60.329 278.900 C 60.604 278.405,60.687 277.994,60.514 277.987 C 60.341 277.980,60.549 277.710,60.976 277.387 C 61.404 277.064,61.601 276.800,61.414 276.800 C 61.228 276.800,61.402 276.440,61.800 276.000 C 62.198 275.560,62.361 275.197,62.162 275.194 C 61.963 275.191,62.070 275.013,62.400 274.800 C 62.779 274.555,62.821 274.410,62.513 274.406 C 62.244 274.403,62.128 274.131,62.254 273.802 C 62.381 273.474,62.643 273.303,62.837 273.423 C 63.032 273.543,63.084 273.364,62.954 273.024 C 62.813 272.658,62.983 272.305,63.370 272.156 C 63.780 271.999,63.939 271.637,63.796 271.186 C 63.670 270.791,63.755 270.352,63.984 270.210 C 64.737 269.745,64.418 269.000,63.467 269.000 C 62.953 269.000,62.533 269.180,62.533 269.400 C 62.533 269.774,62.218 270.541,60.524 274.300 L 59.847 275.800 59.461 274.200 C 59.249 273.320,58.823 272.415,58.515 272.189 C 58.207 271.963,57.903 271.513,57.838 271.189 C 57.469 269.336,56.175 268.278,55.722 269.460 M86.800 269.173 C 86.800 269.408,86.249 269.600,85.576 269.600 C 84.903 269.600,84.451 269.760,84.572 269.955 C 84.693 270.150,84.525 270.530,84.200 270.800 C 83.875 271.070,83.700 271.438,83.811 271.618 C 83.922 271.798,83.822 272.063,83.588 272.207 C 83.002 272.570,83.227 276.370,83.874 277.016 C 84.163 277.306,84.400 277.724,84.400 277.944 C 84.400 278.386,85.034 278.622,87.300 279.023 C 88.330 279.206,88.800 279.142,88.800 278.821 C 88.800 278.563,88.980 278.464,89.200 278.600 C 89.420 278.736,89.600 278.662,89.600 278.436 C 89.600 278.210,89.847 278.120,90.148 278.236 C 90.601 278.409,91.183 277.725,91.372 276.800 C 91.394 276.690,91.585 276.330,91.796 276.000 C 92.354 275.128,92.482 273.698,92.027 273.417 C 91.811 273.283,91.737 272.908,91.862 272.582 C 91.987 272.256,91.891 271.751,91.648 271.458 C 91.406 271.166,91.325 270.808,91.470 270.663 C 91.615 270.518,91.448 270.400,91.100 270.400 C 90.752 270.400,90.406 270.218,90.332 269.996 C 90.258 269.774,89.779 269.511,89.267 269.413 C 88.755 269.314,87.990 269.124,87.568 268.990 C 87.138 268.853,86.800 268.934,86.800 269.173 M105.951 269.322 C 103.281 270.331,102.760 275.728,105.114 277.978 C 107.162 279.935,110.657 279.325,111.290 276.900 C 111.483 276.160,111.362 276.000,110.606 276.000 C 109.941 276.000,109.606 276.304,109.394 277.100 C 109.233 277.705,109.019 277.975,108.918 277.701 C 108.803 277.390,108.368 277.293,107.767 277.444 C 107.158 277.597,106.800 277.514,106.800 277.220 C 106.800 276.963,106.620 276.864,106.400 277.000 C 106.180 277.136,105.978 277.057,105.950 276.824 C 105.853 276.006,105.785 275.795,105.432 275.238 C 105.166 274.819,105.219 274.762,105.638 275.015 C 106.083 275.283,106.105 275.233,105.747 274.777 C 103.886 272.404,107.106 269.903,110.057 271.429 C 111.530 272.191,111.777 272.025,111.165 270.682 C 110.517 269.260,107.913 268.581,105.951 269.322 M114.854 269.588 C 113.056 270.490,112.518 271.457,113.618 271.806 C 114.211 271.994,114.716 271.776,115.399 271.039 C 116.322 270.043,116.389 270.031,117.496 270.666 C 119.426 271.774,118.907 273.196,116.700 272.847 C 116.535 272.821,116.400 272.991,116.400 273.224 C 116.400 273.457,116.232 273.544,116.028 273.417 C 115.823 273.291,115.542 273.370,115.404 273.593 C 115.266 273.817,114.793 274.000,114.353 274.000 C 113.913 274.000,113.655 274.165,113.779 274.366 C 113.903 274.567,113.801 274.800,113.552 274.883 C 112.883 275.106,113.004 277.041,113.759 278.194 C 114.512 279.343,115.666 279.473,117.346 278.598 C 118.770 277.855,118.800 277.856,118.800 278.649 C 118.800 279.178,118.910 279.207,119.395 278.804 C 119.722 278.533,120.282 278.423,120.639 278.560 C 121.135 278.750,121.225 278.642,121.018 278.105 C 120.870 277.717,120.669 276.335,120.573 275.033 C 120.477 273.731,120.310 272.577,120.203 272.469 C 120.095 272.362,120.180 272.065,120.392 271.810 C 120.868 271.237,119.820 269.600,118.977 269.600 C 118.660 269.600,118.400 269.465,118.399 269.300 C 118.398 268.734,116.200 268.913,114.854 269.588 M124.751 269.296 C 121.667 270.437,121.933 273.458,125.200 274.407 C 127.339 275.028,128.162 275.788,127.648 276.671 C 127.415 277.072,127.219 277.237,127.212 277.038 C 127.205 276.839,126.809 277.019,126.331 277.438 C 125.853 277.857,125.613 277.944,125.797 277.632 C 126.040 277.220,125.965 277.128,125.524 277.297 C 125.186 277.427,124.628 277.191,124.263 276.765 C 123.903 276.344,123.355 276.000,123.047 276.000 C 122.264 276.000,121.926 277.086,122.625 277.354 C 122.941 277.476,123.200 277.863,123.200 278.214 C 123.200 278.672,123.428 278.782,124.000 278.600 C 124.496 278.443,124.800 278.528,124.800 278.825 C 124.800 279.351,127.549 279.081,127.968 278.514 C 128.095 278.341,128.470 278.200,128.800 278.200 C 129.130 278.200,129.355 277.975,129.300 277.700 C 129.245 277.425,129.344 277.200,129.520 277.200 C 130.216 277.200,129.510 274.425,128.752 274.185 C 128.332 274.051,128.090 273.777,128.215 273.576 C 128.340 273.374,128.133 273.327,127.755 273.473 C 127.254 273.665,127.157 273.594,127.394 273.210 C 127.643 272.808,127.483 272.743,126.716 272.935 C 125.650 273.203,124.099 272.010,124.555 271.273 C 124.954 270.627,126.765 270.485,127.500 271.043 C 128.450 271.764,129.200 271.733,129.200 270.971 C 129.200 270.226,128.203 269.131,127.848 269.486 C 127.711 269.622,127.600 269.568,127.600 269.367 C 127.600 268.926,125.868 268.883,124.751 269.296 M159.286 269.674 C 159.119 269.841,158.586 270.038,158.102 270.112 C 156.279 270.390,155.804 272.458,157.594 272.322 C 158.227 272.273,158.686 272.136,158.614 272.017 C 158.377 271.621,159.387 270.999,160.200 271.041 C 161.712 271.118,161.915 271.202,162.164 271.851 C 162.448 272.590,161.282 273.677,160.500 273.401 C 160.225 273.304,160.000 273.410,160.000 273.636 C 160.000 273.862,159.818 273.935,159.596 273.798 C 159.107 273.495,157.098 275.003,156.751 275.933 C 156.208 277.389,158.472 279.965,159.835 279.442 C 160.151 279.321,160.469 279.262,160.543 279.311 C 160.617 279.360,160.988 279.142,161.369 278.826 C 161.829 278.444,162.151 278.392,162.330 278.671 C 162.843 279.468,164.462 279.014,164.370 278.100 C 164.353 277.935,164.325 276.368,164.309 274.618 C 164.277 271.304,163.979 270.617,162.164 269.674 C 161.247 269.198,159.762 269.198,159.286 269.674 M169.900 269.643 C 169.515 269.861,169.200 269.919,169.200 269.771 C 169.200 269.623,168.946 269.713,168.636 269.970 C 168.290 270.257,167.979 270.290,167.834 270.055 C 166.811 268.400,166.198 269.976,166.087 274.537 L 165.975 279.200 166.936 279.200 C 167.864 279.200,167.898 279.098,167.900 276.261 C 167.902 272.708,168.735 270.996,170.273 271.383 C 170.927 271.547,171.293 271.423,171.463 270.979 C 171.824 270.040,170.777 269.145,169.900 269.643 M180.004 270.900 C 180.440 271.615,180.798 272.515,180.799 272.900 C 180.799 273.285,180.947 273.600,181.127 273.600 C 181.307 273.600,181.764 274.584,182.143 275.786 C 182.522 276.989,182.998 278.075,183.201 278.201 C 183.715 278.518,182.804 280.400,182.136 280.400 C 181.841 280.400,181.600 280.588,181.600 280.818 C 181.600 281.047,181.375 281.206,181.100 281.170 C 179.985 281.025,179.600 281.239,179.600 282.000 C 179.600 282.863,180.199 282.980,182.377 282.545 C 183.533 282.313,186.458 277.785,185.924 277.053 C 185.856 276.960,186.113 276.539,186.495 276.117 C 186.997 275.561,187.068 275.228,186.752 274.912 C 186.435 274.595,186.547 274.350,187.157 274.023 C 187.664 273.752,188.000 273.179,188.000 272.586 C 188.000 272.044,188.199 271.600,188.443 271.600 C 188.686 271.600,188.778 271.321,188.647 270.979 C 188.511 270.623,188.578 270.463,188.805 270.603 C 189.022 270.737,189.200 270.678,189.200 270.470 C 189.200 270.263,188.861 270.005,188.446 269.896 C 187.623 269.681,186.582 270.646,186.610 271.600 C 186.619 271.930,186.521 272.290,186.392 272.400 C 185.709 272.983,184.379 275.642,184.595 275.993 C 184.734 276.217,184.657 276.400,184.424 276.400 C 184.191 276.400,184.000 276.051,184.000 275.624 C 184.000 275.197,183.817 274.734,183.593 274.596 C 183.370 274.458,183.291 274.177,183.417 273.972 C 183.544 273.768,183.449 273.600,183.206 273.600 C 182.963 273.600,182.809 273.375,182.864 273.100 C 183.011 272.355,181.725 270.134,180.982 269.848 C 179.457 269.263,179.185 269.556,180.004 270.900 M89.876 272.484 C 90.969 275.773,87.825 279.187,85.947 276.751 C 85.544 276.228,85.299 275.566,85.403 275.279 C 85.506 274.993,85.413 274.868,85.195 275.003 C 84.679 275.322,84.694 274.945,85.240 273.925 C 85.560 273.328,85.560 273.178,85.240 273.375 C 84.998 273.525,84.800 273.457,84.800 273.224 C 84.800 272.991,84.980 272.800,85.200 272.800 C 85.420 272.800,85.555 272.640,85.500 272.444 C 84.885 270.251,89.146 270.290,89.876 272.484 M98.800 271.224 C 98.800 271.457,98.960 271.548,99.156 271.427 C 99.510 271.208,100.232 273.835,100.028 274.600 C 99.970 274.820,99.838 275.446,99.736 275.991 C 99.189 278.923,94.685 277.310,94.997 274.295 C 95.070 273.583,95.146 272.685,95.165 272.300 C 95.184 271.915,95.470 271.600,95.800 271.600 C 96.130 271.600,96.400 271.420,96.400 271.200 C 96.400 270.980,96.940 270.800,97.600 270.800 C 98.260 270.800,98.800 270.991,98.800 271.224 M366.296 271.851 C 366.788 271.983,367.092 272.250,366.972 272.445 C 366.851 272.640,366.951 272.800,367.194 272.800 C 367.663 272.800,367.598 274.051,367.110 274.417 C 366.951 274.537,366.760 275.027,366.687 275.507 C 366.614 275.987,366.442 276.492,366.305 276.629 C 366.167 276.766,366.151 277.128,366.268 277.434 C 366.403 277.784,366.060 278.146,365.341 278.414 C 362.931 279.312,362.065 279.781,362.252 280.085 C 362.360 280.258,362.172 280.400,361.836 280.400 C 361.457 280.400,361.313 280.628,361.455 281.000 C 361.582 281.330,361.504 281.600,361.283 281.600 C 361.051 281.600,360.893 282.695,360.911 284.180 C 360.928 285.599,361.077 286.676,361.242 286.574 C 361.519 286.403,362.113 287.664,362.196 288.600 C 362.291 289.664,360.310 290.832,358.566 290.742 C 355.910 290.604,355.860 289.482,358.204 282.548 C 361.611 272.467,362.788 270.911,366.296 271.851 M44.000 274.938 C 44.000 276.006,42.665 277.411,42.025 277.016 C 41.791 276.871,41.600 276.945,41.600 277.180 C 41.600 277.468,41.356 277.454,40.850 277.138 C 40.175 276.717,39.743 274.766,40.350 274.880 C 40.488 274.906,40.870 274.823,41.200 274.695 C 43.535 273.793,44.000 273.833,44.000 274.938 M118.612 275.469 C 118.495 276.535,116.714 278.285,116.466 277.578 C 116.392 277.367,116.176 277.291,115.986 277.409 C 115.668 277.605,114.568 276.056,114.868 275.833 C 117.160 274.130,118.776 273.973,118.612 275.469 M162.557 275.431 C 162.677 275.744,162.631 276.000,162.455 276.000 C 162.279 276.000,161.912 276.417,161.639 276.927 C 160.970 278.176,158.687 277.974,158.879 276.682 C 159.115 275.083,162.041 274.088,162.557 275.431 " stroke="none" fill="#cc643c" fill-rule="evenodd"></path><path id="path1" d="M93.002 98.002 C 93.402 98.444,93.815 98.718,93.921 98.612 C 94.190 98.343,93.192 97.200,92.689 97.200 C 92.462 97.200,92.603 97.561,93.002 98.002 M52.846 103.833 C 51.624 105.386,51.803 105.895,53.050 104.414 C 53.627 103.728,54.008 103.074,53.895 102.962 C 53.783 102.850,53.311 103.242,52.846 103.833 M99.800 160.400 C 99.936 160.620,100.242 160.800,100.479 160.800 C 100.717 160.800,101.802 161.348,102.890 162.017 C 103.978 162.687,104.750 163.043,104.606 162.809 C 104.315 162.338,100.389 160.010,99.876 160.004 C 99.698 160.002,99.664 160.180,99.800 160.400 M371.848 162.000 C 370.995 162.880,370.485 163.600,370.715 163.600 C 370.945 163.600,371.703 162.880,372.400 162.000 C 374.011 159.966,373.822 159.966,371.848 162.000 M160.413 162.273 C 160.429 162.711,162.402 164.131,162.650 163.883 C 162.758 163.775,162.296 163.295,161.623 162.816 C 160.950 162.337,160.406 162.093,160.413 162.273 M322.399 163.500 C 322.922 164.215,323.413 164.800,323.489 164.800 C 323.793 164.800,322.801 163.300,322.145 162.767 C 321.713 162.416,321.810 162.696,322.399 163.500 M333.243 164.023 C 332.717 164.461,332.371 164.905,332.475 165.008 C 332.579 165.112,333.086 164.748,333.601 164.198 C 334.724 163.004,334.562 162.925,333.243 164.023 M368.285 165.745 C 365.955 168.159,365.044 169.200,365.261 169.200 C 365.362 169.200,366.581 168.030,367.970 166.600 C 369.358 165.170,370.376 164.000,370.232 164.000 C 370.088 164.000,369.212 164.785,368.285 165.745 M80.200 165.014 C 79.200 165.496,79.166 165.551,80.000 165.348 C 81.133 165.071,82.407 164.421,81.800 164.430 C 81.580 164.433,80.860 164.696,80.200 165.014 M52.655 166.200 C 53.580 167.779,53.600 167.803,53.600 167.311 C 53.600 167.079,53.229 166.464,52.776 165.944 L 51.953 165.000 52.655 166.200 M96.800 165.298 C 96.800 165.382,97.340 165.968,98.000 166.600 C 98.660 167.232,99.200 167.548,99.200 167.302 C 99.200 167.056,98.660 166.470,98.000 166.000 C 97.340 165.530,96.800 165.214,96.800 165.298 M68.400 166.600 C 67.883 167.150,67.556 167.600,67.672 167.600 C 67.788 167.600,68.369 167.150,68.962 166.600 C 69.556 166.050,69.883 165.600,69.690 165.600 C 69.497 165.600,68.917 166.050,68.400 166.600 M228.492 168.229 C 227.997 168.983,227.672 169.600,227.769 169.600 C 228.047 169.600,229.704 167.171,229.539 167.006 C 229.457 166.924,228.986 167.474,228.492 168.229 M291.798 168.002 C 291.398 168.444,291.159 168.892,291.266 169.000 C 291.373 169.107,291.851 168.745,292.328 168.197 C 293.354 167.017,292.855 166.834,291.798 168.002 M122.551 168.500 C 121.313 169.912,120.683 170.800,120.917 170.800 C 121.036 170.800,121.703 170.080,122.400 169.200 C 123.755 167.489,123.859 167.007,122.551 168.500 M235.319 168.490 C 234.412 169.662,234.356 170.137,235.223 169.311 C 235.736 168.822,236.056 168.323,235.935 168.201 C 235.813 168.080,235.536 168.210,235.319 168.490 M372.400 171.230 C 368.989 174.929,368.918 175.079,371.939 172.200 C 374.059 170.181,375.560 168.385,375.114 168.405 C 375.051 168.408,373.830 169.679,372.400 171.230 M72.233 171.057 C 71.852 172.050,72.272 172.186,72.782 171.234 C 73.027 170.775,73.061 170.400,72.857 170.400 C 72.653 170.400,72.372 170.696,72.233 171.057 M128.032 171.139 C 127.379 172.360,127.514 172.700,128.241 171.663 C 128.593 171.160,128.788 170.654,128.673 170.540 C 128.559 170.425,128.270 170.695,128.032 171.139 M362.800 171.400 C 362.283 171.950,362.027 172.394,362.230 172.387 C 362.572 172.376,364.221 170.400,363.888 170.400 C 363.806 170.400,363.317 170.850,362.800 171.400 M327.429 172.229 C 327.281 172.815,327.238 173.372,327.332 173.466 C 327.427 173.560,327.624 173.158,327.771 172.571 C 327.919 171.985,327.962 171.428,327.868 171.334 C 327.773 171.240,327.576 171.642,327.429 172.229 M226.046 173.667 C 226.021 174.034,225.896 174.664,225.770 175.067 C 225.552 175.762,225.563 175.763,225.997 175.087 C 226.248 174.696,226.373 174.066,226.273 173.687 C 226.111 173.068,226.088 173.066,226.046 173.667 M300.555 175.012 C 300.190 175.569,299.964 176.098,300.053 176.187 C 300.142 176.276,300.518 175.820,300.889 175.174 C 301.714 173.736,301.469 173.617,300.555 175.012 M366.575 177.300 L 365.400 178.600 366.700 177.425 C 367.415 176.779,368.000 176.194,368.000 176.125 C 368.000 175.816,367.670 176.088,366.575 177.300 M60.511 180.100 C 59.772 181.055,59.555 181.600,59.912 181.600 C 60.110 181.600,60.477 181.150,60.727 180.600 C 61.220 179.518,61.128 179.303,60.511 180.100 M336.396 180.708 C 336.639 181.208,336.711 181.821,336.557 182.070 C 336.385 182.348,336.455 182.413,336.738 182.238 C 337.355 181.857,337.321 181.503,336.578 180.576 C 335.982 179.832,335.974 179.838,336.396 180.708 M360.875 183.216 C 360.394 183.664,360.000 184.146,360.000 184.285 C 360.000 184.425,360.450 184.117,361.000 183.600 C 361.938 182.719,362.171 182.400,361.875 182.400 C 361.807 182.400,361.357 182.767,360.875 183.216 M117.232 185.900 C 117.210 186.505,117.430 186.798,117.900 186.794 C 118.332 186.790,118.431 186.675,118.160 186.494 C 117.918 186.332,117.617 185.930,117.492 185.600 C 117.339 185.199,117.253 185.299,117.232 185.900 M110.402 190.000 C 110.033 191.204,110.052 192.129,110.433 191.485 C 110.666 191.092,110.768 190.552,110.660 190.285 C 110.552 190.018,110.436 189.890,110.402 190.000 M283.200 192.200 C 283.200 192.750,283.355 193.200,283.545 193.200 C 283.734 193.200,283.803 192.750,283.698 192.200 C 283.593 191.650,283.438 191.200,283.353 191.200 C 283.269 191.200,283.200 191.650,283.200 192.200 M342.846 193.467 C 342.821 193.724,342.684 194.264,342.541 194.667 C 342.340 195.236,342.394 195.297,342.779 194.942 C 343.052 194.691,343.189 194.151,343.084 193.742 C 342.979 193.334,342.872 193.210,342.846 193.467 M265.386 196.500 L 264.752 197.800 265.567 196.800 C 266.352 195.837,266.608 195.200,266.210 195.200 C 266.106 195.200,265.735 195.785,265.386 196.500 M262.562 199.658 C 261.805 200.510,261.806 200.513,262.678 200.056 C 263.650 199.546,264.249 198.800,263.686 198.800 C 263.487 198.800,262.981 199.186,262.562 199.658 M326.499 201.591 C 325.812 202.690,325.874 202.983,326.632 202.225 C 326.980 201.877,327.204 201.413,327.131 201.192 C 327.057 200.972,326.773 201.151,326.499 201.591 M149.000 203.200 C 148.602 203.640,148.478 204.000,148.724 204.000 C 148.970 204.000,149.365 203.640,149.600 203.200 C 149.835 202.760,149.960 202.400,149.876 202.400 C 149.792 202.400,149.398 202.760,149.000 203.200 M84.000 204.222 C 84.000 204.877,85.208 206.400,85.723 206.394 C 86.044 206.390,86.061 206.291,85.777 206.094 C 85.544 205.932,85.049 205.355,84.677 204.811 C 84.305 204.267,84.000 204.002,84.000 204.222 M327.775 206.100 L 326.600 207.400 327.900 206.225 C 328.615 205.579,329.200 204.994,329.200 204.925 C 329.200 204.616,328.870 204.888,327.775 206.100 M360.812 205.807 C 360.798 206.274,362.721 209.200,363.042 209.200 C 363.159 209.200,362.910 208.705,362.488 208.100 C 362.067 207.495,361.520 206.640,361.273 206.200 C 361.026 205.760,360.819 205.583,360.812 205.807 M288.773 208.111 C 289.528 208.924,290.218 209.516,290.306 209.427 C 290.483 209.250,289.402 208.125,288.183 207.217 C 287.752 206.897,288.018 207.299,288.773 208.111 M156.344 208.023 C 155.450 208.802,155.446 208.823,156.278 208.420 C 156.760 208.187,157.266 207.817,157.401 207.598 C 157.795 206.962,157.363 207.135,156.344 208.023 M242.800 208.800 C 243.270 209.460,243.744 210.000,243.854 210.000 C 243.964 210.000,243.670 209.460,243.200 208.800 C 242.730 208.140,242.256 207.600,242.146 207.600 C 242.036 207.600,242.330 208.140,242.800 208.800 M99.600 209.400 C 99.322 209.735,99.279 210.000,99.502 210.000 C 99.722 210.000,100.126 209.730,100.400 209.400 C 100.678 209.065,100.721 208.800,100.498 208.800 C 100.278 208.800,99.874 209.070,99.600 209.400 M152.000 210.800 C 150.790 211.439,149.941 211.971,150.113 211.981 C 150.538 212.007,154.400 210.036,154.400 209.793 C 154.400 209.526,154.455 209.503,152.000 210.800 M260.962 210.462 L 260.200 211.324 261.300 210.616 C 262.434 209.886,262.649 209.600,262.062 209.600 C 261.876 209.600,261.381 209.988,260.962 210.462 M246.800 212.000 C 247.570 212.422,248.380 212.766,248.600 212.766 C 248.820 212.766,248.370 212.422,247.600 212.000 C 246.830 211.578,246.020 211.234,245.800 211.234 C 245.580 211.234,246.030 211.578,246.800 212.000 M237.200 228.200 C 236.210 228.730,235.580 229.164,235.800 229.164 C 236.020 229.164,237.010 228.730,238.000 228.200 C 238.990 227.670,239.620 227.236,239.400 227.236 C 239.180 227.236,238.190 227.670,237.200 228.200 M28.905 238.687 C 29.514 238.779,30.414 238.777,30.905 238.682 C 31.397 238.587,30.900 238.511,29.800 238.514 C 28.700 238.517,28.297 238.595,28.905 238.687 M35.300 238.691 C 36.125 238.778,37.475 238.778,38.300 238.691 C 39.125 238.605,38.450 238.534,36.800 238.534 C 35.150 238.534,34.475 238.605,35.300 238.691 M292.200 250.614 C 291.195 251.098,291.163 251.153,292.000 250.951 C 292.550 250.819,293.171 250.550,293.380 250.355 C 293.898 249.871,293.614 249.933,292.200 250.614 M305.991 253.188 C 306.457 253.841,307.042 254.502,307.291 254.656 C 307.541 254.811,307.241 254.276,306.625 253.468 C 305.288 251.715,304.784 251.492,305.991 253.188 M315.999 253.002 C 315.483 253.551,315.182 254.000,315.330 254.000 C 315.718 254.000,317.299 252.365,317.102 252.168 C 317.011 252.077,316.514 252.452,315.999 253.002 M27.693 265.026 C 28.079 265.412,31.600 265.527,31.600 265.153 C 31.600 264.959,30.670 264.800,29.533 264.800 C 28.397 264.800,27.568 264.902,27.693 265.026 M74.800 265.353 C 74.800 265.717,76.359 265.872,76.856 265.557 C 77.226 265.323,76.984 265.210,76.100 265.206 C 75.385 265.203,74.800 265.269,74.800 265.353 M34.014 265.622 C 34.006 265.745,34.450 266.455,35.000 267.200 C 35.550 267.945,35.999 268.385,35.998 268.178 C 35.996 267.772,34.038 265.251,34.014 265.622 M79.978 266.041 C 80.517 266.256,81.237 266.647,81.578 266.909 C 81.926 267.176,81.864 266.992,81.438 266.493 C 81.019 266.002,80.299 265.611,79.838 265.625 C 79.074 265.648,79.086 265.685,79.978 266.041 M326.796 266.204 C 326.257 266.855,326.680 266.991,327.543 266.444 C 327.872 266.235,327.929 266.004,327.688 265.854 C 327.469 265.719,327.068 265.877,326.796 266.204 M347.444 266.380 C 347.688 266.721,348.088 267.360,348.332 267.800 C 348.576 268.240,348.781 268.385,348.788 268.122 C 348.795 267.860,348.395 267.221,347.900 266.703 C 347.405 266.185,347.200 266.040,347.444 266.380 M53.628 267.500 C 53.651 268.703,53.724 268.842,54.000 268.200 C 54.478 267.088,54.478 266.000,54.000 266.000 C 53.780 266.000,53.613 266.675,53.628 267.500 M28.233 271.599 C 28.275 277.820,28.701 278.268,28.773 272.165 C 28.803 269.588,28.922 267.327,29.037 267.140 C 29.153 266.953,29.012 266.800,28.724 266.800 C 28.319 266.800,28.207 267.894,28.233 271.599 M32.162 267.262 C 31.985 267.548,32.052 267.615,32.338 267.438 C 32.592 267.281,32.800 267.324,32.800 267.534 C 32.800 267.743,33.067 268.017,33.394 268.142 C 33.891 268.333,33.908 268.242,33.498 267.585 C 32.938 266.689,32.571 266.600,32.162 267.262 M354.159 268.075 C 353.917 268.804,353.582 269.715,353.416 270.100 C 353.219 270.558,353.290 270.800,353.624 270.800 C 353.904 270.800,354.021 270.687,353.883 270.549 C 353.745 270.411,353.906 269.769,354.240 269.122 C 354.575 268.476,354.792 267.677,354.724 267.348 C 354.656 267.019,354.402 267.346,354.159 268.075 M148.846 269.300 C 148.895 271.482,149.052 271.272,149.297 268.700 C 149.375 267.875,149.296 267.200,149.120 267.200 C 148.944 267.200,148.821 268.145,148.846 269.300 M81.902 268.600 C 82.007 269.150,82.162 269.600,82.247 269.600 C 82.331 269.600,82.400 269.150,82.400 268.600 C 82.400 268.050,82.245 267.600,82.055 267.600 C 81.866 267.600,81.797 268.050,81.902 268.600 M310.249 268.215 C 310.112 268.573,310.015 269.166,310.034 269.533 C 310.053 269.900,310.227 269.669,310.421 269.020 C 310.798 267.758,310.665 267.133,310.249 268.215 M48.079 268.613 C 48.488 269.021,50.000 269.151,50.000 268.777 C 50.000 268.570,49.520 268.400,48.933 268.400 C 48.347 268.400,47.962 268.496,48.079 268.613 M54.970 269.066 C 55.097 269.396,55.200 269.775,55.200 269.909 C 55.200 270.043,55.440 269.824,55.734 269.422 C 56.244 268.725,56.309 268.735,57.158 269.646 L 58.047 270.600 57.679 269.600 C 57.399 268.842,56.999 268.584,56.025 268.534 C 55.033 268.482,54.793 268.604,54.970 269.066 M62.424 269.310 C 61.821 270.276,61.167 272.000,61.405 272.000 C 61.506 272.000,61.842 271.396,62.150 270.658 C 62.717 269.301,64.400 268.370,64.400 269.414 C 64.400 269.710,64.220 270.064,64.000 270.200 C 63.780 270.336,63.600 270.651,63.600 270.900 C 63.600 271.638,64.773 269.864,64.787 269.104 C 64.805 268.162,63.045 268.315,62.424 269.310 M134.112 268.937 C 134.257 269.371,137.200 269.602,137.200 269.180 C 137.200 269.017,136.478 268.815,135.596 268.731 C 134.714 268.647,134.047 268.740,134.112 268.937 M44.643 269.367 C 44.776 269.715,45.061 270.000,45.276 270.000 C 45.802 270.000,45.473 269.091,44.875 268.892 C 44.582 268.794,44.493 268.977,44.643 269.367 M85.400 269.200 C 85.264 269.420,85.523 269.600,85.976 269.600 C 86.429 269.600,86.800 269.420,86.800 269.200 C 86.800 268.980,86.541 268.800,86.224 268.800 C 85.907 268.800,85.536 268.980,85.400 269.200 M87.642 268.976 C 87.739 269.072,88.353 269.248,89.006 269.367 C 89.659 269.485,90.255 269.766,90.330 269.991 C 90.405 270.216,90.767 270.399,91.133 270.397 C 91.578 270.396,91.401 270.131,90.600 269.600 C 89.604 268.940,87.073 268.406,87.642 268.976 M97.400 269.200 C 98.511 269.678,99.295 269.678,99.000 269.200 C 98.864 268.980,98.268 268.813,97.676 268.828 C 96.715 268.853,96.686 268.893,97.400 269.200 M109.657 269.277 C 110.238 269.523,110.987 270.281,111.322 270.962 C 111.844 272.025,111.922 272.071,111.878 271.284 C 111.818 270.199,110.982 269.383,109.600 269.062 C 108.626 268.836,108.627 268.842,109.657 269.277 M114.500 269.065 C 113.681 269.395,113.933 269.943,114.800 269.716 C 115.240 269.601,115.600 269.348,115.600 269.153 C 115.600 268.772,115.288 268.747,114.500 269.065 M118.400 269.213 C 118.400 269.426,118.660 269.600,118.977 269.600 C 119.295 269.600,119.835 270.000,120.177 270.489 C 120.520 270.978,120.800 271.192,120.800 270.965 C 120.800 270.353,119.897 269.346,119.100 269.068 C 118.715 268.935,118.400 268.999,118.400 269.213 M123.544 269.587 C 123.025 270.019,122.825 270.379,123.100 270.387 C 123.375 270.394,123.600 270.235,123.600 270.033 C 123.600 269.832,124.095 269.486,124.700 269.265 C 125.305 269.044,125.505 268.849,125.144 268.832 C 124.784 268.814,124.064 269.154,123.544 269.587 M130.400 269.175 C 130.400 269.381,130.760 269.523,131.200 269.490 C 131.640 269.457,132.000 269.288,132.000 269.115 C 132.000 268.942,131.640 268.800,131.200 268.800 C 130.760 268.800,130.400 268.969,130.400 269.175 M75.646 269.467 C 75.621 269.724,75.484 270.264,75.341 270.667 C 75.140 271.236,75.194 271.297,75.579 270.942 C 75.852 270.691,75.989 270.151,75.884 269.742 C 75.779 269.334,75.672 269.210,75.646 269.467 M128.413 269.500 C 128.406 269.775,128.580 270.000,128.800 270.000 C 129.020 270.000,129.200 270.360,129.200 270.800 C 129.200 271.776,128.709 271.809,127.286 270.927 L 126.200 270.254 127.083 271.127 C 128.074 272.106,130.000 272.316,130.000 271.444 C 130.000 270.744,128.431 268.821,128.413 269.500 M158.100 269.465 C 157.825 269.576,157.600 269.815,157.600 269.996 C 157.600 270.405,159.133 270.033,159.430 269.552 C 159.661 269.178,158.930 269.130,158.100 269.465 M162.986 270.222 C 163.593 270.784,164.174 271.159,164.278 271.055 C 164.547 270.786,162.891 269.200,162.342 269.200 C 162.089 269.200,162.379 269.660,162.986 270.222 M166.222 269.565 C 166.098 269.766,166.312 269.879,166.698 269.816 C 167.084 269.754,167.609 269.868,167.864 270.071 C 168.158 270.304,168.438 270.262,168.626 269.958 C 168.815 269.653,168.755 269.581,168.462 269.762 C 168.208 269.919,168.000 269.857,168.000 269.624 C 168.000 269.106,166.535 269.057,166.222 269.565 M171.263 269.875 C 171.497 270.158,171.592 270.644,171.473 270.954 C 171.317 271.359,171.656 271.566,172.669 271.684 C 173.914 271.829,173.996 271.787,173.364 271.324 C 172.970 271.036,172.479 270.800,172.275 270.800 C 172.070 270.800,172.117 270.541,172.380 270.224 C 172.643 269.907,173.145 269.757,173.495 269.892 C 173.923 270.056,174.035 269.980,173.836 269.657 C 173.673 269.394,172.931 269.220,172.188 269.270 C 171.137 269.341,170.931 269.476,171.263 269.875 M176.995 269.550 C 178.728 269.921,178.814 271.101,177.124 271.309 L 175.800 271.472 177.306 271.536 C 178.746 271.597,178.809 271.547,178.721 270.400 C 178.637 269.300,178.512 269.204,177.215 269.247 L 175.800 269.295 176.995 269.550 M181.242 270.126 C 181.769 270.635,182.427 271.400,182.704 271.826 C 182.982 272.252,182.843 271.835,182.396 270.900 C 181.933 269.930,181.304 269.200,180.933 269.200 C 180.422 269.200,180.488 269.397,181.242 270.126 M186.800 270.000 C 186.559 270.451,186.534 270.800,186.743 270.800 C 186.947 270.800,187.213 270.544,187.333 270.231 C 187.466 269.883,187.871 269.746,188.376 269.878 C 188.845 270.000,189.200 269.901,189.200 269.647 C 189.200 268.865,187.254 269.152,186.800 270.000 M152.846 269.867 C 152.821 270.124,152.684 270.664,152.541 271.067 C 152.340 271.636,152.394 271.697,152.779 271.342 C 153.052 271.091,153.189 270.551,153.084 270.142 C 152.979 269.734,152.872 269.610,152.846 269.867 M40.576 270.587 C 39.566 271.351,40.004 271.359,41.454 270.602 C 42.084 270.274,42.319 270.004,41.976 270.002 C 41.634 270.001,41.004 270.264,40.576 270.587 M116.095 270.289 C 115.818 270.388,115.387 270.859,115.137 271.335 C 114.707 272.156,114.722 272.167,115.442 271.552 C 115.859 271.196,116.461 270.824,116.780 270.725 C 117.099 270.627,117.189 270.448,116.980 270.327 C 116.771 270.207,116.373 270.189,116.095 270.289 M324.467 271.180 C 324.233 271.851,324.193 272.400,324.377 272.400 C 324.744 272.400,325.347 270.413,325.066 270.132 C 324.970 270.037,324.701 270.508,324.467 271.180 M130.400 270.855 C 130.400 271.045,130.747 271.200,131.171 271.200 C 131.595 271.200,132.024 271.515,132.124 271.900 C 132.269 272.455,132.317 272.423,132.354 271.747 C 132.387 271.136,132.115 270.839,131.400 270.702 C 130.850 270.597,130.400 270.666,130.400 270.855 M57.975 271.554 C 58.522 272.575,58.764 272.638,58.630 271.722 C 58.575 271.349,58.303 270.968,58.026 270.875 C 57.634 270.745,57.623 270.895,57.975 271.554 M106.287 271.366 C 105.532 271.939,104.999 274.400,105.629 274.400 C 105.833 274.400,106.000 273.950,106.000 273.400 C 106.000 272.850,106.360 272.040,106.800 271.600 C 107.704 270.696,107.370 270.545,106.287 271.366 M124.584 271.225 C 124.440 271.459,124.637 271.999,125.023 272.425 C 125.795 273.278,126.400 273.433,126.400 272.776 C 126.400 272.543,126.240 272.451,126.045 272.572 C 125.850 272.693,125.457 272.509,125.171 272.165 C 124.742 271.648,124.752 271.476,125.226 271.176 C 125.586 270.948,125.623 270.810,125.324 270.806 C 125.062 270.803,124.729 270.991,124.584 271.225 M133.852 271.116 C 133.744 271.290,134.318 271.367,135.128 271.287 C 137.342 271.069,137.605 270.867,135.724 270.832 C 134.802 270.814,133.959 270.942,133.852 271.116 M77.800 271.776 L 76.200 272.291 77.502 272.285 C 78.217 272.281,79.004 272.036,79.251 271.739 C 79.497 271.443,79.631 271.214,79.549 271.231 C 79.467 271.248,78.680 271.493,77.800 271.776 M80.592 272.242 C 79.759 273.015,79.654 273.247,80.186 273.142 C 80.581 273.064,81.173 272.595,81.501 272.100 C 82.288 270.913,81.974 270.962,80.592 272.242 M95.160 272.276 C 95.139 272.674,95.067 273.540,95.002 274.200 C 94.875 275.477,95.719 277.200,96.471 277.200 C 96.737 277.200,96.658 276.906,96.281 276.489 C 95.597 275.734,95.258 273.278,95.730 272.512 C 95.886 272.261,95.830 271.942,95.607 271.804 C 95.383 271.666,95.182 271.878,95.160 272.276 M120.301 271.900 C 120.221 272.065,120.281 272.830,120.436 273.600 C 120.715 274.990,120.717 274.988,120.680 273.300 C 120.644 271.597,120.574 271.340,120.301 271.900 M150.000 272.016 C 149.537 272.327,149.648 272.390,150.485 272.291 C 151.082 272.221,151.697 272.037,151.852 271.882 C 152.288 271.445,150.675 271.562,150.000 272.016 M62.619 273.163 C 62.267 273.843,62.119 274.399,62.290 274.397 C 62.655 274.393,63.669 272.335,63.425 272.092 C 63.334 272.000,62.971 272.482,62.619 273.163 M185.391 273.300 C 184.861 274.393,184.858 274.473,185.367 273.800 C 185.700 273.360,186.166 272.775,186.402 272.500 C 186.679 272.178,186.687 272.000,186.426 272.000 C 186.203 272.000,185.737 272.585,185.391 273.300 M168.187 273.000 C 168.084 273.330,167.912 273.879,167.805 274.221 C 167.697 274.562,167.766 274.745,167.957 274.627 C 168.148 274.509,168.391 273.959,168.497 273.406 C 168.706 272.313,168.490 272.030,168.187 273.000 M45.521 274.224 C 45.430 275.008,45.500 275.738,45.677 275.848 C 45.855 275.958,46.000 275.317,46.000 274.424 C 46.000 272.419,45.744 272.313,45.521 274.224 M99.606 274.100 C 99.610 274.984,99.723 275.226,99.957 274.856 C 100.272 274.359,100.117 272.800,99.753 272.800 C 99.669 272.800,99.603 273.385,99.606 274.100 M127.224 273.337 C 127.965 273.990,129.277 274.430,129.125 273.975 C 129.033 273.699,128.528 273.408,128.003 273.328 C 127.478 273.247,127.128 273.252,127.224 273.337 M181.274 274.602 C 181.525 275.153,181.784 275.550,181.849 275.484 C 182.092 275.241,181.494 273.600,181.162 273.600 C 180.972 273.600,181.023 274.051,181.274 274.602 M278.590 274.430 C 278.212 275.622,278.527 275.715,279.067 274.571 C 279.319 274.037,279.374 273.600,279.189 273.600 C 279.005 273.600,278.735 273.974,278.590 274.430 M43.654 274.700 C 43.625 275.195,43.240 275.960,42.800 276.400 C 42.360 276.840,42.152 277.200,42.338 277.200 C 43.071 277.200,44.057 275.628,43.887 274.733 C 43.709 273.802,43.709 273.802,43.654 274.700 M186.617 274.372 C 186.344 274.814,186.975 275.292,187.344 274.922 C 187.725 274.542,187.654 274.000,187.224 274.000 C 187.017 274.000,186.744 274.168,186.617 274.372 M40.996 274.807 C 40.858 275.030,40.577 275.109,40.372 274.983 C 40.168 274.856,40.000 274.943,40.000 275.176 C 40.000 275.751,40.448 275.690,41.376 274.987 C 41.804 274.664,41.949 274.400,41.700 274.400 C 41.451 274.400,41.134 274.583,40.996 274.807 M84.957 275.033 C 85.091 275.381,85.200 275.741,85.200 275.833 C 85.200 275.925,85.402 276.000,85.649 276.000 C 85.979 276.000,85.980 275.858,85.652 275.463 C 85.407 275.168,85.325 274.808,85.470 274.663 C 85.615 274.518,85.504 274.400,85.224 274.400 C 84.924 274.400,84.814 274.660,84.957 275.033 M115.900 275.103 C 115.295 275.478,114.800 275.929,114.800 276.105 C 114.800 276.280,115.340 276.025,116.000 275.537 C 117.055 274.757,117.427 274.376,117.100 274.411 C 117.045 274.416,116.505 274.728,115.900 275.103 M125.200 274.686 C 125.530 274.808,126.160 275.074,126.600 275.276 C 127.387 275.638,127.388 275.634,126.624 275.022 C 126.196 274.680,125.566 274.414,125.224 274.432 C 124.685 274.459,124.682 274.493,125.200 274.686 M161.016 274.774 C 160.871 275.008,161.018 275.200,161.343 275.200 C 161.668 275.200,162.014 275.425,162.112 275.700 C 162.210 275.975,162.406 276.094,162.548 275.964 C 162.689 275.835,162.462 275.418,162.042 275.038 C 161.543 274.586,161.188 274.495,161.016 274.774 M105.427 275.200 C 105.785 275.796,105.854 276.009,105.950 276.824 C 105.978 277.057,106.165 277.145,106.366 277.021 C 106.567 276.897,106.801 277.003,106.886 277.258 C 106.971 277.512,107.229 277.648,107.460 277.560 C 107.690 277.472,107.246 276.770,106.473 276.000 C 105.699 275.230,105.228 274.870,105.427 275.200 M93.240 275.846 C 93.200 276.682,94.720 279.013,95.074 278.659 C 95.175 278.558,94.929 278.095,94.529 277.629 C 94.128 277.163,93.683 276.381,93.540 275.891 C 93.287 275.024,93.279 275.023,93.240 275.846 M148.800 276.973 C 148.800 278.601,148.710 278.761,147.700 278.913 C 146.676 279.069,146.690 279.084,147.900 279.140 L 149.200 279.200 149.200 277.200 C 149.200 276.100,149.110 275.200,149.000 275.200 C 148.890 275.200,148.800 275.998,148.800 276.973 M322.715 275.810 C 322.592 276.245,322.369 276.960,322.220 277.400 C 322.071 277.840,322.242 277.694,322.600 277.076 C 322.958 276.458,323.181 275.742,323.095 275.486 C 323.010 275.230,322.839 275.376,322.715 275.810 M53.487 275.900 C 53.398 276.065,53.460 276.650,53.623 277.200 C 53.901 278.135,53.923 278.115,53.960 276.900 C 53.999 275.646,53.822 275.273,53.487 275.900 M99.062 276.331 C 98.253 277.226,98.211 277.647,98.961 277.360 C 99.269 277.241,99.612 276.797,99.723 276.372 C 99.973 275.417,99.894 275.412,99.062 276.331 M101.693 276.800 C 101.693 277.570,101.775 277.885,101.876 277.500 C 101.976 277.115,101.976 276.485,101.876 276.100 C 101.775 275.715,101.693 276.030,101.693 276.800 M34.562 277.000 C 33.923 277.549,33.594 277.999,33.830 278.000 C 34.067 278.000,34.683 277.550,35.200 277.000 C 36.408 275.714,36.058 275.713,34.562 277.000 M40.000 276.300 C 40.000 276.469,40.360 276.832,40.800 277.107 C 41.240 277.382,41.600 277.469,41.600 277.300 C 41.600 277.131,41.240 276.768,40.800 276.493 C 40.360 276.218,40.000 276.131,40.000 276.300 M91.550 276.200 C 91.523 276.310,91.475 276.535,91.444 276.700 C 91.413 276.865,91.228 277.253,91.032 277.562 C 90.788 277.947,90.821 278.034,91.136 277.840 C 91.843 277.402,92.513 276.000,92.014 276.000 C 91.786 276.000,91.578 276.090,91.550 276.200 M111.467 276.267 C 111.320 276.413,111.211 276.908,111.225 277.367 C 111.249 278.133,111.282 278.123,111.634 277.242 C 112.026 276.263,111.944 275.789,111.467 276.267 M112.832 277.051 C 112.814 277.519,113.099 278.149,113.465 278.451 C 114.060 278.942,114.087 278.915,113.720 278.200 C 113.493 277.760,113.208 277.130,113.086 276.800 C 112.933 276.388,112.853 276.467,112.832 277.051 M350.871 277.600 C 350.410 278.894,350.421 278.950,351.025 278.347 C 351.383 277.988,351.608 277.358,351.523 276.947 C 351.409 276.393,351.240 276.562,350.871 277.600 M75.467 277.067 C 75.320 277.213,75.200 277.651,75.200 278.039 C 75.200 278.447,74.821 278.825,74.300 278.936 C 73.672 279.069,73.753 279.108,74.569 279.063 C 75.522 279.012,75.764 278.797,75.882 277.900 C 76.030 276.777,75.939 276.594,75.467 277.067 M86.200 277.200 C 86.336 277.420,86.717 277.600,87.047 277.600 C 87.377 277.600,87.536 277.420,87.400 277.200 C 87.264 276.980,86.883 276.800,86.553 276.800 C 86.223 276.800,86.064 276.980,86.200 277.200 M156.401 277.491 C 156.400 278.390,158.195 279.938,158.679 279.454 C 158.819 279.314,158.721 279.200,158.461 279.200 C 158.201 279.200,157.632 278.615,157.196 277.900 C 156.498 276.756,156.403 276.707,156.401 277.491 M42.996 278.007 C 42.858 278.230,42.614 278.332,42.453 278.233 C 42.293 278.134,41.900 278.218,41.581 278.420 C 41.116 278.714,41.160 278.786,41.800 278.781 C 42.240 278.778,42.949 278.510,43.376 278.187 C 43.804 277.864,43.949 277.600,43.700 277.600 C 43.451 277.600,43.134 277.783,42.996 278.007 M45.300 278.012 C 44.199 278.455,44.168 278.612,45.168 278.688 C 45.590 278.719,46.034 278.488,46.155 278.173 C 46.276 277.858,46.336 277.611,46.287 277.625 C 46.239 277.639,45.795 277.813,45.300 278.012 M128.000 278.376 C 128.000 278.609,127.685 278.814,127.300 278.832 C 126.908 278.849,126.813 278.950,127.085 279.060 C 127.782 279.343,129.027 278.588,128.451 278.232 C 128.203 278.078,128.000 278.143,128.000 278.376 M27.100 278.682 C 27.595 278.778,28.405 278.778,28.900 278.682 C 29.395 278.587,28.990 278.509,28.000 278.509 C 27.010 278.509,26.605 278.587,27.100 278.682 M119.800 278.800 C 119.936 279.020,120.317 279.200,120.647 279.200 C 120.977 279.200,121.136 279.020,121.000 278.800 C 120.864 278.580,120.483 278.400,120.153 278.400 C 119.823 278.400,119.664 278.580,119.800 278.800 M161.396 278.807 C 161.258 279.030,160.990 279.117,160.800 279.000 C 160.610 278.883,160.342 278.970,160.204 279.193 C 160.066 279.417,160.188 279.594,160.476 279.587 C 161.125 279.572,162.727 278.400,162.100 278.400 C 161.851 278.400,161.534 278.583,161.396 278.807 M163.415 279.224 C 163.696 279.679,164.800 279.727,164.800 279.285 C 164.800 279.112,164.436 278.943,163.991 278.909 C 163.547 278.876,163.287 279.018,163.415 279.224 M184.885 279.613 C 184.618 280.040,184.407 280.617,184.416 280.895 C 184.425 281.173,184.709 280.889,185.047 280.265 C 185.750 278.968,185.618 278.438,184.885 279.613 M59.950 279.400 C 59.923 279.510,59.875 279.735,59.844 279.900 C 59.813 280.065,59.628 280.453,59.432 280.762 C 59.188 281.147,59.221 281.234,59.536 281.040 C 60.243 280.602,60.913 279.200,60.414 279.200 C 60.186 279.200,59.977 279.290,59.950 279.400 M304.659 284.054 C 303.435 285.924,303.432 286.572,304.655 284.895 C 305.409 283.862,306.114 282.400,305.858 282.400 C 305.794 282.400,305.255 283.145,304.659 284.054 M360.426 284.800 C 360.433 285.387,361.950 288.449,361.983 287.944 C 361.992 287.803,361.644 286.903,361.209 285.944 C 360.774 284.985,360.421 284.470,360.426 284.800 M312.086 289.600 C 312.325 290.410,313.890 291.154,314.834 290.907 C 316.091 290.578,315.701 290.124,314.335 290.324 C 313.414 290.459,312.911 290.304,312.489 289.755 C 312.118 289.272,311.972 289.216,312.086 289.600 M279.038 292.843 C 279.457 293.307,280.340 294.054,281.000 294.504 C 281.746 295.011,281.525 294.692,280.416 293.660 C 278.510 291.886,277.784 291.456,279.038 292.843 M312.305 297.883 C 312.802 297.979,313.522 297.975,313.905 297.875 C 314.287 297.775,313.880 297.696,313.000 297.701 C 312.120 297.705,311.807 297.787,312.305 297.883 " stroke="none" fill="#cc6434" fill-rule="evenodd"></path><path id="path2" d="" stroke="none" fill="#cc6c3c" fill-rule="evenodd"></path><path id="path3" d="" stroke="none" fill="#d0643c" fill-rule="evenodd"></path><path id="path4" d="" stroke="none" fill="#d0643c" fill-rule="evenodd"></path></g></svg>